<?xml version="1.0" standalone="no"?>
<!DOCTYPE svg PUBLIC "-//W3C//DTD SVG 20010904//EN"
 "http://www.w3.org/TR/2001/REC-SVG-20010904/DTD/svg10.dtd">
<svg version="1.0" xmlns="http://www.w3.org/2000/svg"
 width="1280.000000pt" height="1068.000000pt" viewBox="0 0 1280.000000 1068.000000"
 preserveAspectRatio="xMidYMid meet">
<metadata>
Created by potrace 1.15, written by Peter Selinger 2001-2017
</metadata>
<g transform="translate(0.000000,1068.000000) scale(0.100000,-0.100000)"
fill="#000000" stroke="none">
<path d="M8015 10655 c-226 -98 -511 -173 -1089 -291 -423 -85 -697 -147
-1207 -274 -304 -76 -819 -201 -1769 -429 -2518 -606 -3911 -956 -3937 -989
-20 -25 -15 -144 12 -308 15 -87 25 -189 25 -246 0 -91 1 -98 25 -116 14 -11
54 -25 89 -32 38 -7 72 -20 82 -31 28 -31 11 -99 -56 -234 -66 -130 -78 -181
-65 -280 6 -50 19 -74 111 -211 162 -241 204 -337 204 -469 0 -106 -25 -149
-115 -197 -101 -54 -109 -66 -102 -163 3 -44 15 -156 26 -250 32 -271 58 -621
86 -1160 30 -573 45 -851 51 -903 5 -48 9 -54 42 -71 47 -24 104 -84 130 -136
30 -62 50 -172 66 -380 23 -292 52 -380 152 -462 99 -80 138 -120 185 -190 80
-118 80 -118 304 -118 155 0 201 4 250 19 l59 18 286 -289 c241 -243 678 -694
1133 -1169 l107 -112 -11 -53 c-15 -78 -12 -261 6 -357 50 -262 216 -523 440
-692 121 -92 57 -98 532 46 894 269 2098 641 4073 1257 1311 410 2360 731
2865 878 959 280 1337 400 1665 527 l125 48 3 237 2 236 -30 35 c-34 38 -66
51 -152 61 -56 6 -108 34 -108 58 0 7 37 31 83 54 45 23 101 61 124 83 50 47
50 10 -4 365 -25 162 -36 278 -40 390 -2 88 -6 169 -8 180 -6 28 -47 49 -135
70 -88 21 -126 38 -140 64 -6 12 -10 101 -10 218 l0 199 36 13 c20 7 54 29 76
49 101 91 111 192 59 581 -21 156 -27 364 -12 453 7 45 6 49 -28 81 -20 19
-79 66 -132 104 -137 100 -167 152 -171 285 -1 66 0 73 25 94 15 13 52 31 83
41 90 28 101 48 109 200 10 173 1 407 -30 713 -30 303 -40 534 -28 646 l9 81
-96 43 c-52 24 -183 93 -290 154 -107 60 -242 134 -300 164 -58 30 -112 63
-121 74 -16 20 -16 20 -94 -2 -103 -29 -139 -23 -217 32 -149 106 -359 224
-803 453 -104 54 -296 161 -425 239 -247 147 -463 260 -566 294 -133 45 -194
41 -453 -34 -193 -57 -336 -96 -606 -168 -115 -30 -426 -116 -690 -191 -579
-163 -894 -243 -1285 -325 -348 -73 -751 -164 -1125 -254 -257 -62 -431 -106
-1785 -450 -1173 -298 -1878 -459 -2395 -547 -66 -11 -131 -22 -145 -25 l-25
-5 25 15 c44 27 251 105 385 145 72 21 229 62 350 91 694 164 1145 278 2410
610 812 213 829 216 1075 245 302 34 306 35 772 196 364 125 437 143 1326 334
750 160 1074 240 1428 351 118 37 155 44 222 44 44 0 113 7 153 15 70 15 205
58 217 69 20 21 -90 141 -183 200 -33 22 -150 83 -260 137 -110 54 -281 141
-380 193 -287 152 -375 176 -480 131z m330 -200 c100 -27 219 -90 283 -149 46
-44 66 -55 97 -58 49 -4 55 -22 26 -88 -31 -73 -29 -84 17 -75 20 4 68 22 106
41 39 19 79 34 90 34 24 0 106 -32 106 -41 0 -15 -102 -100 -147 -122 -72 -37
-152 -55 -362 -83 -353 -47 -709 -136 -2086 -522 -742 -209 -947 -263 -1435
-384 -1286 -316 -1556 -377 -2105 -473 -399 -70 -737 -156 -1340 -340 -427
-131 -622 -186 -659 -187 -20 -1 -37 7 -53 26 -26 31 -29 65 -9 105 l15 27
-59 -4 c-84 -6 -123 11 -209 93 -108 102 -164 143 -226 160 -52 16 -54 17 -44
42 5 14 22 42 38 62 47 60 53 77 35 95 -8 9 -23 16 -33 16 -10 0 -21 3 -25 7
-18 18 1721 452 2899 722 143 33 478 110 745 171 267 61 541 124 610 140 69
16 285 65 480 110 1633 373 1706 391 2140 527 223 69 487 137 615 157 130 20
403 15 490 -9z m1171 -720 c27 -14 92 -61 144 -104 132 -111 224 -160 720
-383 377 -170 666 -334 760 -433 l45 -48 -305 155 c-168 85 -489 255 -715 378
-225 122 -505 272 -622 331 -168 86 -208 111 -195 119 33 19 116 11 168 -15z
m-370 -171 c15 -25 39 -78 54 -117 55 -140 66 -232 90 -757 6 -124 17 -262 23
-308 12 -76 12 -84 -5 -102 -34 -36 -61 -35 -158 10 -73 34 -94 39 -105 30 -8
-7 -15 -20 -16 -29 -2 -58 -51 151 -73 314 -13 99 -22 193 -56 645 -10 130
-24 259 -36 328 l-5 32 130 0 130 0 27 -46z m333 -60 c104 -26 270 -102 497
-227 115 -63 281 -151 369 -195 88 -44 197 -106 242 -139 87 -62 303 -249 303
-262 0 -31 -132 -41 -270 -21 -41 6 -92 8 -112 5 -43 -8 -78 -44 -78 -82 0
-20 -4 -24 -17 -18 -10 4 -63 23 -118 42 -107 37 -134 51 -178 91 -25 24 -29
25 -44 10 -26 -27 -8 -46 81 -87 81 -37 106 -60 106 -96 0 -12 -5 -15 -17 -10
-50 19 -140 17 -226 -5 -104 -27 -156 -23 -241 14 -32 14 -61 26 -63 26 -16 0
27 -35 68 -55 48 -25 59 -40 59 -81 0 -20 -5 -24 -28 -24 -56 0 -145 40 -263
120 -66 44 -124 80 -129 80 -4 0 1 17 11 37 36 71 16 160 -41 178 -19 6 -19 6
0 38 30 48 25 126 -16 290 -19 78 -38 176 -41 217 -5 74 -5 76 21 88 34 15 56
60 35 73 -23 14 15 11 90 -7z m-686 -96 c20 -27 20 -28 2 -107 -24 -105 -19
-173 45 -625 28 -197 53 -391 57 -431 l6 -74 -29 -7 c-19 -5 -48 0 -91 15 -34
12 -71 20 -81 16 -15 -4 -21 0 -25 17 -58 252 -69 353 -97 883 -6 110 -12 215
-15 233 l-4 32 54 0 c43 0 60 5 84 26 17 14 31 32 31 41 0 23 41 11 63 -19z
m-317 -401 c39 -56 59 -137 50 -199 -6 -43 -8 -45 -84 -83 -61 -30 -92 -40
-150 -44 -71 -6 -73 -7 -58 -26 13 -18 25 -20 108 -18 l93 2 -60 -18 c-490
-150 -942 -272 -1757 -475 -322 -80 -691 -173 -818 -206 -128 -33 -235 -59
-237 -56 -9 9 76 68 125 86 28 11 138 36 243 55 105 20 205 42 222 50 30 14
24 15 -83 11 -182 -7 -372 -50 -722 -161 -95 -30 -228 -71 -295 -92 -67 -20
-119 -41 -117 -45 12 -19 100 -5 228 37 142 47 232 64 301 55 38 -5 32 -8
-105 -57 -80 -28 -185 -63 -234 -77 -145 -42 -246 -32 -246 26 0 30 -17 21
-97 -53 -88 -82 -122 -99 -193 -99 l-50 0 15 24 c19 29 75 55 140 64 l50 8
-30 19 c-44 30 -97 24 -205 -23 -52 -22 -114 -44 -138 -48 -37 -6 -41 -9 -30
-20 7 -8 42 -17 76 -20 l63 -7 -73 -29 c-213 -84 -595 -189 -914 -252 -231
-45 -254 -49 -254 -43 0 11 97 64 155 86 62 23 206 54 310 67 48 6 55 9 35 15
-72 21 -230 2 -410 -51 -301 -88 -379 -110 -420 -115 -70 -10 -73 -12 -59 -36
11 -21 16 -21 100 -16 81 5 116 -3 72 -16 -10 -3 -67 -24 -128 -47 -60 -24
-155 -56 -209 -72 -162 -46 -476 -93 -476 -70 0 6 10 14 23 18 l22 8 -25 7
c-14 4 -41 7 -61 8 -57 2 -198 41 -269 75 -43 20 -89 54 -135 100 l-70 69 40
34 c55 48 143 95 256 137 161 59 1019 269 2844 696 1125 263 1463 343 1870
440 344 82 1284 317 1560 389 83 22 156 39 164 38 8 -1 29 -23 47 -50z m-2892
-225 c-19 -34 -39 -47 -82 -57 -31 -6 -32 -5 -32 25 0 25 6 33 33 45 17 8 47
14 65 15 l33 0 -17 -28z m96 -102 l0 -40 -40 0 -40 0 0 40 0 40 40 0 40 0 0
-40z m5832 -34 c92 -14 197 -32 234 -41 88 -20 216 -81 282 -134 53 -42 53
-43 35 -63 -31 -36 -132 -96 -196 -117 -35 -12 -146 -41 -247 -65 -468 -111
-2418 -619 -4785 -1245 -187 -49 -425 -112 -530 -140 -104 -27 -336 -89 -515
-136 -412 -109 -1551 -407 -2170 -568 l-475 -124 -29 26 c-16 14 -66 76 -111
137 -100 134 -150 179 -228 203 l-58 17 44 41 c96 88 199 126 467 173 209 36
227 41 1920 499 657 177 703 189 1595 415 889 225 1191 308 1655 456 164 52
255 74 380 95 183 30 439 83 690 143 155 38 251 63 917 241 464 124 888 222
933 216 14 -1 100 -15 192 -29z m-6292 -79 c0 -48 -15 -57 -97 -57 l-73 0 0
45 0 45 85 0 85 0 0 -33z m-575 -99 c28 -13 44 -53 27 -70 -6 -6 -28 -11 -48
-12 -27 -1 -38 4 -42 16 -2 10 -13 20 -23 23 -26 9 -24 34 4 45 31 12 52 12
82 -2z m4960 -44 c18 7 20 -15 3 -32 -18 -18 -53 -15 -103 9 -45 21 -56 44
-33 67 9 9 24 4 65 -19 30 -17 60 -28 68 -25z m-5195 31 c43 -22 42 -68 -2
-95 -36 -22 -118 -28 -118 -9 0 7 18 31 40 55 22 24 40 48 40 54 0 13 6 13 40
-5z m-4045 -92 c17 -8 102 -88 190 -178 155 -158 230 -215 281 -215 13 0 14
-3 4 -15 -19 -23 -90 -19 -139 8 -70 37 -156 115 -297 269 -74 80 -134 149
-134 153 0 9 59 -5 95 -22z m4420 -22 c9 -16 -37 -41 -76 -41 -42 0 -72 25
-48 41 19 12 116 12 124 0z m-910 -63 c57 -26 17 -58 -74 -58 -67 0 -78 13
-41 50 23 23 75 26 115 8z m8311 -53 c-49 -74 -150 -114 -373 -145 -169 -23
-216 -35 -438 -115 -88 -31 -198 -66 -245 -76 l-85 -19 99 5 c116 7 250 34
506 105 196 54 382 94 491 105 l66 6 11 -58 c30 -154 72 -634 72 -828 l0 -50
-62 -17 c-35 -9 -477 -134 -983 -278 -506 -144 -1215 -344 -1575 -445 -968
-271 -1992 -557 -2180 -609 -234 -64 -905 -248 -1375 -378 -820 -225 -2838
-768 -2842 -764 -2 1 1 43 6 92 7 60 6 144 -2 257 -10 155 -10 169 6 185 23
23 91 20 151 -7 l45 -20 7 34 c8 44 -12 102 -42 121 -16 11 -41 15 -79 12 -44
-2 -56 0 -60 13 -9 28 -50 58 -89 66 l-39 8 42 48 c22 27 41 52 41 57 0 10
-25 20 -51 20 -25 0 -24 5 12 61 59 93 173 164 364 228 142 48 159 50 150 19
-4 -13 -16 -38 -27 -56 -11 -18 -18 -35 -16 -38 3 -2 144 53 314 122 465 190
609 241 858 305 l111 28 -60 0 c-196 1 -520 -73 -1075 -245 -172 -53 -440
-126 -563 -153 -100 -22 -108 -16 -55 44 51 59 92 74 245 90 124 12 179 26
538 130 810 234 1328 377 2175 599 179 46 557 145 840 220 1437 377 2045 535
2780 726 443 115 900 237 1015 270 479 140 729 210 889 250 174 43 488 109
495 104 2 -2 -4 -15 -13 -29z m-9274 -75 c10 -12 18 -31 18 -41 0 -17 -8 -19
-65 -19 l-65 0 0 38 c0 21 3 42 8 46 14 15 86 -2 104 -24z m1078 -20 l0 -40
-45 0 -45 0 0 40 0 40 45 0 45 0 0 -40z m-3453 -138 c506 -471 1288 -1160
2099 -1850 l250 -212 1 -83 c1 -45 11 -127 23 -182 11 -55 21 -139 21 -187 1
-92 10 -102 35 -42 10 23 14 77 14 179 0 132 2 147 20 165 11 11 28 20 39 20
20 0 19 6 47 -290 7 -85 14 -235 14 -332 l0 -178 -24 0 c-43 0 -51 24 -56 165
-5 132 -14 165 -45 165 -21 0 -23 -30 -9 -140 15 -121 17 -200 6 -217 -9 -15
-210 142 -523 408 -323 273 -533 462 -1129 1014 -387 359 -638 589 -833 764
-76 68 -140 128 -142 135 -2 6 -11 128 -20 271 -17 280 -28 376 -51 470 -15
58 -15 60 6 77 14 11 39 18 66 18 42 0 48 -4 191 -138z m2645 116 c52 -25 55
-30 32 -52 -35 -35 -124 -8 -124 38 0 43 23 47 92 14z m3986 -84 c2 -12 -4
-29 -13 -37 -15 -16 -101 -34 -112 -24 -3 3 4 18 16 33 11 15 21 33 21 41 0
10 11 13 43 11 34 -2 43 -7 45 -24z m-3898 -64 l0 -40 -45 0 -45 0 0 40 0 40
45 0 45 0 0 -40z m4610 34 c0 -30 -59 -74 -100 -74 -16 0 -20 6 -20 30 0 17 7
33 18 39 18 11 102 15 102 5z m-4800 -62 l23 -19 -32 -22 c-40 -29 -71 -21
-71 18 0 15 3 31 7 34 12 13 51 7 73 -11z m3613 -98 c43 -6 45 -8 51 -44 8
-48 45 -80 94 -80 34 0 35 0 17 -20 -14 -16 -31 -20 -81 -20 l-62 0 11 30 c16
41 1 50 -85 50 l-68 0 0 35 c0 50 30 62 123 49z m-245 -83 l-3 -36 -82 -3
c-69 -2 -83 0 -83 13 0 20 34 53 62 59 46 10 64 12 86 8 20 -4 23 -10 20 -41z
m-5183 -150 c412 -327 742 -618 1035 -911 225 -225 228 -233 92 -191 -118 36
-203 105 -440 361 -183 197 -281 285 -407 367 -55 37 -150 99 -210 139 -214
140 -287 230 -311 384 l-6 44 38 -29 c22 -16 116 -90 209 -164z m5305 60 c0
-20 -61 -59 -110 -71 -28 -7 -53 -10 -55 -8 -11 10 24 55 55 70 37 19 110 24
110 9z m-796 -29 c24 -26 25 -30 10 -43 -15 -12 -14 -15 6 -31 16 -13 40 -18
86 -18 39 0 64 -4 64 -11 0 -26 -23 -49 -61 -60 -22 -7 -49 -24 -60 -37 -18
-24 -20 -24 -44 -8 -15 10 -38 44 -52 78 -20 45 -34 64 -57 73 l-29 13 41 26
c23 14 42 31 42 36 0 19 26 10 54 -18z m-596 -118 l37 -15 -24 -20 c-28 -23
-65 -34 -86 -25 -22 8 -18 43 7 60 27 19 21 19 66 0z m-285 -64 c35 0 34 -14
-2 -51 -25 -25 -37 -29 -84 -29 -47 0 -55 3 -60 21 -12 46 22 72 83 64 19 -3
47 -5 63 -5z m389 -57 c10 -9 18 -27 18 -40 0 -22 -3 -23 -65 -23 l-65 0 0 40
0 40 47 0 c29 0 53 -6 65 -17z m-1822 -308 c23 -8 58 -15 76 -15 26 0 32 -3
27 -16 -9 -24 -41 -30 -130 -24 l-83 5 20 33 c22 36 31 38 90 17z m730 -34
c-16 -32 -61 -61 -91 -61 -24 0 -29 4 -29 24 0 34 35 56 88 56 39 0 42 -2 32
-19z m7913 -208 c48 -204 60 -284 54 -373 -5 -92 -33 -169 -70 -195 -45 -32
-251 -4 -332 44 l-32 19 -17 -28 c-9 -16 -16 -39 -16 -52 -1 -22 -1 -22 -25 7
-62 75 -83 196 -65 379 l12 124 57 -5 c56 -5 58 -5 121 46 114 90 154 115 200
127 88 24 85 27 113 -93z m-11486 76 c61 -30 109 -89 188 -235 53 -96 78 -132
103 -147 28 -17 32 -24 27 -46 -4 -14 -27 -47 -52 -74 -44 -47 -45 -50 -40
-98 l6 -49 -43 29 c-156 107 -260 313 -284 559 l-8 82 30 0 c16 0 49 -9 73
-21z m3113 -99 l0 -40 -40 0 -40 0 0 40 0 40 40 0 40 0 0 -40z m7758 -125 c1
-44 11 -132 22 -196 25 -145 25 -287 2 -349 l-17 -45 -57 -3 c-51 -3 -60 0
-92 28 -69 61 -98 204 -76 385 10 87 33 214 46 253 3 9 26 12 86 10 l83 -3 3
-80z m-638 -127 c29 0 60 6 75 16 45 29 126 17 173 -26 28 -27 38 -62 62 -229
10 -75 22 -149 26 -163 6 -24 4 -26 -30 -26 -33 0 -38 -4 -52 -37 -24 -64 -39
-88 -56 -91 -13 -3 -55 12 -100 36 -5 2 -8 -15 -8 -38 l0 -43 -52 7 c-83 11
-163 43 -261 102 -88 54 -181 104 -192 104 -3 0 2 -14 10 -30 21 -40 81 -83
188 -132 48 -23 87 -45 87 -50 0 -19 -30 -66 -45 -72 -23 -8 -59 2 -140 41
-95 45 -124 44 -67 -3 31 -26 42 -43 42 -64 0 -28 0 -28 -42 -18 -24 5 -63 21
-88 35 -89 52 -137 74 -176 80 -36 6 -38 5 -25 -11 8 -10 36 -28 63 -42 52
-26 73 -54 64 -88 -5 -19 -16 -23 -103 -33 -54 -7 -179 -35 -277 -63 -99 -27
-188 -50 -198 -50 -10 0 -20 9 -23 23 -27 127 -55 281 -55 309 0 48 33 88 71
88 l30 0 -18 31 c-18 31 -52 63 -89 85 -17 10 -14 14 31 37 107 54 190 72 325
72 110 0 134 -4 197 -27 40 -14 96 -42 124 -63 28 -20 48 -31 43 -23 -22 39
-83 104 -131 140 -49 37 -53 43 -38 57 12 12 50 17 179 22 90 4 172 12 184 18
28 15 42 42 42 81 l0 32 38 -30 c58 -46 200 -132 217 -132 38 0 26 32 -34 88
-47 45 -61 64 -61 86 0 28 1 29 20 11 13 -12 35 -17 70 -17z m-10220 -232 c38
-26 198 -157 299 -245 35 -31 166 -166 291 -301 259 -280 428 -442 865 -835
435 -390 696 -637 840 -795 122 -133 255 -292 250 -298 -4 -5 -104 56 -175
106 -149 106 -650 569 -1271 1173 -613 597 -861 830 -1123 1054 l-138 119 32
29 c38 34 72 32 130 -7z m2115 -100 c76 -35 173 -113 221 -179 53 -72 56 -89
14 -77 -54 16 -97 49 -182 142 -46 50 -101 105 -123 121 -39 29 -39 29 -10 23
17 -4 53 -18 80 -30z m9494 -20 c-71 -67 -149 -97 -342 -131 -189 -34 -222
-43 -502 -135 -132 -43 -289 -88 -350 -100 -224 -43 -310 -63 -478 -110 -151
-42 -1183 -341 -1757 -509 -2777 -813 -3223 -940 -4200 -1201 -598 -159 -1321
-343 -1327 -336 -11 10 64 69 124 98 34 16 149 51 255 78 106 26 290 76 408
110 214 61 1064 307 1655 479 2140 620 2257 653 3505 981 1309 344 1883 505
2530 712 338 107 370 115 470 116 l65 1 -56 -53z m-11574 -191 c322 -269 603
-529 1295 -1200 492 -477 695 -668 958 -898 l182 -160 0 -101 c0 -251 28 -692
85 -1321 19 -209 39 -436 45 -505 14 -167 40 -603 37 -606 -6 -6 -224 193
-376 341 -212 207 -437 446 -809 859 -637 708 -809 884 -1022 1050 -243 190
-322 273 -385 407 -34 74 -33 81 13 63 66 -27 131 21 117 85 -11 51 -28 57
-100 38 -110 -30 -105 -34 -105 96 0 152 -23 439 -65 823 -61 557 -79 844 -69
1056 l7 127 26 -18 c14 -11 89 -72 166 -136z m456 126 c25 -26 29 -37 29 -85
l0 -56 -35 0 c-29 0 -37 5 -46 27 -12 32 -2 143 13 143 5 0 23 -13 39 -29z
m8205 -32 c61 -21 102 -29 130 -26 l40 4 22 -136 c13 -75 22 -179 22 -233 l0
-97 -77 -29 c-81 -31 -149 -52 -170 -52 -9 0 -13 21 -13 70 0 95 -15 158 -65
275 -67 154 -70 221 -10 245 28 12 22 13 121 -21z m3068 -51 c38 -162 57 -335
63 -555 3 -123 3 -223 -1 -223 -24 0 -1608 -479 -3306 -1000 -2230 -684 -3572
-1072 -4877 -1410 -198 -52 -390 -108 -458 -134 -192 -75 -282 -83 -347 -28
l-32 27 59 5 c56 5 58 6 33 17 -43 19 -110 85 -129 128 -39 85 -12 191 63 245
22 16 45 31 51 33 9 3 9 7 0 17 -9 10 -20 9 -53 -4 -44 -17 -72 -11 -84 20
-11 30 -6 49 34 118 22 37 40 77 40 87 0 21 -31 44 -73 54 l-27 7 22 40 c57
101 151 153 323 177 148 22 188 32 765 201 674 198 1358 393 2055 589 275 77
646 181 825 231 275 77 1550 434 2610 731 446 125 1637 468 2045 588 204 60
373 110 376 110 4 1 14 -32 23 -71z m-3331 4 c69 -76 82 -342 29 -572 l-17
-75 -88 -3 -88 -3 -20 46 c-35 78 -43 164 -28 289 7 61 14 154 14 206 l0 95
78 -3 c72 -3 79 -1 84 18 7 25 15 25 36 2z m-253 -361 c0 -5 -15 -28 -32 -52
-44 -56 -117 -96 -196 -106 -62 -8 -62 -8 -47 -30 20 -28 44 -29 93 -4 90 46
179 49 100 3 -79 -45 -257 -122 -386 -166 -169 -58 -312 -98 -692 -196 -349
-90 -596 -162 -739 -215 -51 -19 -102 -35 -112 -35 -10 0 -26 12 -36 26 -49
70 -48 70 -105 19 -83 -75 -96 -79 -246 -83 -137 -4 -161 -14 -92 -37 l33 -11
-84 -33 c-173 -69 -439 -149 -829 -251 -428 -112 -728 -203 -942 -286 -45 -17
-49 -17 -65 -2 -15 16 -15 20 2 58 16 36 17 43 4 51 -20 14 -150 3 -239 -21
-41 -11 -97 -20 -123 -20 l-49 0 7 33 c11 51 47 109 84 134 43 29 79 39 220
58 73 10 183 37 305 75 105 32 398 118 651 190 678 194 970 287 1257 401 70
28 124 42 190 49 245 27 531 93 848 195 456 148 642 200 819 230 172 30 401
44 401 26z m-1310 -132 c0 -6 -13 -24 -29 -40 -31 -31 -85 -40 -94 -16 -7 18
11 47 36 57 31 12 87 12 87 -1z m4703 -618 c54 -67 79 -139 85 -252 l5 -96
-36 -27 c-64 -49 -130 -67 -302 -81 -88 -7 -162 -12 -164 -10 -2 2 13 44 32
92 44 109 60 195 51 273 -6 55 -5 60 21 84 26 25 103 45 123 32 21 -13 75 7
90 34 15 26 17 27 37 12 11 -8 37 -36 58 -61z m-606 -83 c35 -32 52 -99 78
-293 22 -166 23 -181 7 -193 -27 -20 -83 -32 -158 -32 l-71 0 -6 93 c-3 50
-15 128 -26 172 -12 44 -21 108 -21 143 l0 62 46 33 c72 51 107 55 151 15z
m-8704 -29 c183 -94 311 -247 362 -434 19 -72 31 -275 21 -368 l-8 -67 -61 42
c-85 60 -216 192 -256 260 -80 138 -111 264 -111 458 0 71 2 130 5 130 3 0 25
-10 48 -21z m8416 -116 c-17 -103 -14 -111 42 -137 38 -18 47 -26 36 -33 -25
-14 -38 -53 -37 -106 1 -29 1 -58 1 -65 -1 -7 -22 -35 -47 -62 -56 -60 -109
-81 -254 -104 -123 -20 -208 -41 -253 -62 -31 -15 -36 -14 -88 9 -31 14 -104
57 -163 97 -59 39 -138 86 -176 104 l-67 33 18 34 c10 19 18 46 19 62 0 38 40
40 128 5 42 -18 55 -19 65 -9 9 10 8 15 -6 25 -21 16 -13 43 14 51 11 4 48 3
83 0 82 -9 106 3 106 51 l0 34 50 -25 c27 -14 80 -45 117 -68 59 -38 140 -77
159 -77 14 0 -25 36 -71 65 -66 43 -85 65 -92 110 l-6 37 79 -7 c92 -8 164 6
266 54 86 40 86 40 77 -16z m-7376 -140 c39 -161 47 -222 54 -405 l6 -166 -54
-29 c-53 -27 -58 -28 -224 -30 -93 -1 -183 -6 -198 -12 -16 -6 -30 -11 -31
-11 -2 0 -6 46 -10 103 -4 56 -20 163 -37 237 -16 74 -32 161 -36 192 -6 56
-6 57 23 63 67 15 104 30 184 73 107 57 203 92 256 92 l41 0 26 -107z m8333
-158 c-58 -44 -352 -139 -539 -174 -150 -29 -163 -28 -107 9 105 70 286 125
527 159 70 10 130 19 133 19 3 1 -4 -5 -14 -13z m-2446 -90 c-18 -22 -96 -65
-119 -65 -75 0 30 77 108 79 19 1 21 -1 11 -14z m2770 -344 c0 -334 -1 -360
-17 -365 -10 -3 -232 -72 -493 -155 -2702 -852 -5257 -1619 -8022 -2409 l-488
-139 20 32 c31 50 26 90 -22 169 -37 61 -43 78 -42 126 0 60 35 154 63 170 13
8 11 9 -11 10 -37 0 -76 19 -83 41 -3 9 -5 44 -3 76 2 32 0 67 -4 78 -15 42
180 158 387 229 55 19 201 62 325 96 124 34 230 66 235 72 18 19 -174 0 -270
-26 -49 -13 -173 -51 -275 -84 -181 -58 -290 -85 -400 -97 l-55 -6 60 58 c110
105 233 155 646 257 164 40 378 103 564 165 165 55 482 151 705 215 1099 312
1439 409 1590 457 91 28 182 56 203 62 51 13 72 47 147 232 33 82 67 156 75
164 9 9 43 16 92 19 67 4 95 0 187 -27 67 -19 132 -31 168 -31 l59 0 -16 -30
c-38 -73 -155 -80 -288 -16 -41 20 -78 36 -81 36 -3 0 -6 -9 -6 -20 0 -41 -31
-93 -95 -159 l-65 -67 63 3 c214 12 496 77 952 218 665 206 1713 513 2166 634
344 92 778 196 786 188 6 -6 -883 -300 -1242 -411 -453 -140 -668 -203 -1675
-497 -996 -291 -1570 -462 -1566 -467 2 -2 62 6 132 18 589 94 1383 309 2779
750 1382 437 1920 591 2600 746 105 23 196 43 203 43 9 1 12 -77 12 -358z
m-2319 304 c47 -13 100 -25 117 -27 36 -3 37 -5 17 -32 -40 -53 -1 -101 81
-101 50 0 51 -1 28 -13 -14 -7 -75 -33 -137 -56 -394 -152 -779 -191 -1177
-120 -129 23 -126 21 -99 50 38 40 122 76 193 81 83 7 170 -10 331 -64 110
-37 134 -42 157 -32 35 14 39 28 26 93 -10 46 -9 58 5 79 38 58 132 39 222
-44 34 -33 66 -59 70 -59 5 0 33 12 63 28 l54 27 -5 54 c-7 65 -35 99 -89 107
-32 6 -36 9 -26 21 14 17 45 31 68 32 9 1 54 -10 101 -24z m-331 -55 c-36 -27
-386 -148 -397 -137 -2 2 6 15 17 29 30 38 102 68 234 95 65 13 128 28 140 33
31 11 34 1 6 -20z m-769 -84 c-44 -46 -131 -70 -131 -36 0 14 98 60 129 60
l24 0 -22 -24z m-267 -197 c18 -16 -26 -61 -82 -85 -100 -43 -110 -56 -70 -93
30 -29 18 -48 -52 -83 -93 -48 -180 -30 -180 37 0 30 -14 31 -71 5 -24 -11
-54 -20 -66 -20 -25 0 -28 -11 -12 -41 14 -28 3 -56 -26 -63 -14 -4 -88 1
-166 10 -78 9 -177 14 -220 12 l-79 -3 -21 53 c-12 30 -29 56 -37 59 -12 5
-12 7 2 15 22 13 113 -6 237 -47 124 -42 196 -53 222 -33 18 13 18 16 3 52
-22 53 -20 71 10 95 37 29 104 27 214 -5 49 -14 104 -24 122 -22 36 3 37 6 22
92 -6 38 -6 39 19 32 24 -6 46 0 147 39 34 14 66 11 84 -6z m245 -60 c46 -10
50 -13 41 -30 -20 -37 -89 -62 -187 -67 -106 -5 -114 1 -58 53 52 49 116 63
204 44z m-889 -18 c0 -19 -28 -29 -92 -34 -97 -7 -91 22 7 34 77 10 85 10 85
0z m1223 -30 c14 -14 -3 -38 -46 -62 -34 -19 -61 -24 -137 -27 -52 -2 -93 -2
-90 1 15 15 140 82 174 93 40 13 83 10 99 -5z m-423 -126 c19 -23 -3 -63 -45
-81 -19 -7 -60 -14 -92 -14 l-58 1 58 54 c46 44 65 55 91 55 19 0 39 -7 46
-15z m-339 -113 c-12 -23 -39 -46 -77 -65 -36 -18 -151 -40 -184 -35 l-23 3
28 33 c47 56 107 80 203 81 57 1 62 -1 53 -17z m-896 -28 c52 -25 153 -109
143 -119 -8 -8 -259 35 -313 54 -143 51 -127 104 30 97 63 -2 93 -9 140 -32z
m-6935 -70 c94 -85 140 -213 140 -388 0 -133 -3 -137 -75 -101 -120 58 -185
224 -185 472 l0 93 40 -20 c23 -12 58 -37 80 -56z m6490 12 c0 -35 -36 -74
-78 -85 -96 -24 -92 -24 -92 7 0 39 38 72 102 87 71 18 68 18 68 -9z m842 -22
c10 -9 -11 -67 -31 -88 -27 -27 -122 -34 -155 -13 -40 26 -13 78 50 97 33 10
128 13 136 4z m-1397 -43 c15 -25 -104 -86 -125 -65 -11 11 -3 24 35 52 31 22
79 29 90 13z m255 -64 c41 -11 105 -21 142 -21 61 -1 68 -3 68 -21 0 -10 -25
-43 -56 -72 -59 -56 -62 -68 -39 -140 6 -19 4 -23 -16 -23 -12 0 -32 -9 -44
-20 l-22 -20 -27 21 c-25 20 -27 25 -24 98 2 48 -2 88 -11 109 l-14 33 -66 -7
c-57 -5 -70 -3 -90 13 -19 15 -23 25 -17 46 10 41 76 43 216 4z m-3816 -59 c3
-13 6 -87 6 -164 0 -110 -3 -144 -14 -153 -11 -9 -16 -9 -22 1 -9 14 -8 314 2
329 9 16 21 10 28 -13z m3673 -46 c31 -20 14 -86 -30 -108 -32 -17 -139 -25
-152 -12 -8 8 27 69 50 88 17 14 83 39 105 39 8 1 20 -3 27 -7z m-799 -44 c-3
-7 -16 -21 -31 -31 -22 -17 -29 -18 -42 -7 -20 17 -19 57 2 69 21 11 76 -14
71 -31z m555 23 c-14 -52 -85 -72 -138 -37 -26 17 -26 18 -9 37 14 15 31 19
85 19 61 0 67 -2 62 -19z m5782 -6 c-47 -39 -143 -83 -225 -104 -72 -18 -366
-71 -392 -71 -18 1 231 101 331 135 90 29 239 63 286 64 l30 1 -30 -25z m-695
-43 c0 -17 -10 -38 -23 -50 -24 -23 -131 -52 -143 -39 -4 4 -2 25 5 47 14 49
48 69 114 70 45 0 47 -1 47 -28z m909 -90 c13 -60 13 -86 2 -160 -6 -48 -17
-92 -24 -98 -7 -6 -88 -32 -182 -59 -721 -202 -2044 -603 -3870 -1172 -1302
-405 -1611 -501 -2150 -666 -297 -91 -693 -211 -880 -267 -187 -56 -446 -133
-575 -172 -346 -103 -1313 -379 -1316 -375 -2 2 -13 40 -24 86 -15 59 -20 107
-18 169 l3 87 73 41 c88 50 239 102 322 111 33 3 60 9 60 13 0 14 -65 35 -105
34 -22 -1 -62 -12 -90 -26 -27 -14 -74 -33 -104 -42 -58 -17 -151 -22 -151 -8
0 13 187 99 288 133 98 34 290 84 494 128 208 47 334 83 558 162 323 113 661
223 840 273 167 47 422 107 428 101 2 -1 -48 -28 -110 -59 -112 -55 -275 -113
-438 -156 -116 -31 -125 -43 -25 -35 118 10 289 54 575 149 140 46 272 87 293
91 43 8 54 20 37 40 -18 22 -59 18 -134 -10 -64 -24 -136 -33 -136 -17 0 9
377 145 790 283 687 231 1439 457 2225 668 485 130 565 150 565 142 0 -20 -89
-64 -180 -88 -113 -31 -110 -41 12 -42 107 -1 209 22 369 82 96 36 309 139
309 148 0 22 -88 6 -178 -30 -102 -42 -181 -66 -189 -58 -2 3 20 24 49 46 92
69 232 118 423 147 122 19 123 19 95 -11 -21 -22 -82 -48 -135 -57 -18 -3 -17
-6 10 -23 43 -29 96 -23 212 24 55 22 111 41 124 41 21 0 22 1 4 20 -14 16
-31 20 -82 20 -34 0 -63 4 -63 8 0 11 39 46 66 61 12 6 47 14 79 17 52 6 55 8
40 23 -10 10 -40 18 -81 21 l-65 5 50 33 c96 62 236 106 401 127 l54 6 -19
-21 c-29 -32 -69 -50 -175 -81 l-95 -27 73 -1 c94 -1 210 24 462 102 113 35
207 62 210 60 9 -8 -66 -63 -126 -93 -34 -16 -135 -51 -224 -76 -89 -25 -176
-52 -193 -59 l-30 -13 30 -6 c38 -9 178 8 275 33 40 11 143 45 228 76 374 137
543 185 656 185 l57 0 -7 -49 c-6 -43 -4 -51 13 -60 31 -17 69 -13 81 8 8 15
5 32 -10 71 -25 63 -25 75 0 100 19 19 31 20 128 18 l107 -3 14 -73z m-6064
33 c14 -13 25 -31 25 -39 0 -8 3 -22 6 -30 5 -14 1 -16 -32 -11 -26 4 -60 0
-103 -14 -62 -19 -100 -17 -115 8 -9 14 53 81 89 97 50 22 102 17 130 -11z
m-825 -15 c-6 -11 -23 -26 -38 -34 -33 -17 -112 -39 -118 -33 -3 2 1 16 7 30
15 33 63 56 117 57 40 0 42 -1 32 -20z m1070 -59 c0 -65 -68 -103 -167 -93
l-43 4 17 28 c24 42 110 85 176 89 12 1 17 -7 17 -28z m-600 -62 c0 -16 -56
-69 -73 -69 -9 0 -22 -3 -31 -6 -12 -5 -16 1 -16 24 0 16 6 34 13 40 25 20
107 29 107 11z m204 -87 c-8 -11 -24 -17 -50 -17 -51 0 -57 25 -12 53 33 21
33 21 53 2 15 -16 17 -24 9 -38z m-3168 -80 c4 -33 4 -72 0 -86 -7 -29 -31
-35 -40 -10 -10 25 -7 105 5 148 14 51 27 32 35 -52z m2924 -6 c0 -26 -35 -57
-75 -66 -45 -11 -119 -13 -127 -4 -13 12 7 47 36 65 39 24 166 28 166 5z
m-2112 -388 l-3 -272 -70 -17 c-38 -9 -131 -37 -205 -62 -102 -35 -157 -48
-224 -53 -85 -7 -89 -6 -82 12 29 69 28 74 -9 271 -11 57 -15 109 -11 136 l7
43 70 12 c72 12 135 40 226 98 112 72 189 102 261 103 l42 1 -2 -272z m722
212 c0 -35 -35 -60 -86 -60 -46 0 -46 0 -30 23 9 12 19 30 23 40 4 13 16 17
49 17 37 0 44 -3 44 -20z m-1519 -173 c72 -48 119 -171 119 -307 -1 -80 -17
-139 -47 -172 -20 -23 -72 -52 -80 -45 -2 3 -15 63 -29 134 -40 208 -43 413
-6 413 5 0 24 -10 43 -23z m69 -855 c31 -80 46 -171 64 -372 9 -96 19 -197 22
-225 l6 -50 -22 20 c-56 51 -93 173 -111 364 -11 128 -4 335 11 326 5 -3 18
-31 30 -63z m-92 -656 c174 -134 232 -246 233 -447 0 -133 -2 -139 -54 -139
-160 0 -287 229 -274 495 5 102 12 135 29 135 5 0 35 -20 66 -44z"/>
<path d="M8007 8621 c-63 -16 -108 -43 -95 -56 6 -7 164 20 215 36 17 6 37 17
43 25 11 12 5 14 -41 13 -30 0 -85 -8 -122 -18z"/>
<path d="M7725 8543 c-11 -2 -55 -11 -97 -19 -144 -27 -409 -116 -394 -131 8
-9 265 37 353 63 77 22 203 78 203 89 0 6 -35 5 -65 -2z"/>
<path d="M7075 8380 c-79 -7 -150 -31 -190 -65 -19 -16 -16 -16 65 -11 67 5
98 12 148 36 34 17 62 35 62 41 0 5 -1 8 -2 8 -2 -1 -39 -5 -83 -9z"/>
<path d="M6680 8275 c-127 -26 -217 -56 -252 -85 l-23 -20 30 5 c17 2 56 7 87
10 65 6 182 45 246 82 68 40 68 40 -88 8z"/>
<path d="M3958 7570 c-33 -10 -88 -48 -88 -61 0 -14 86 -11 123 5 18 7 43 25
56 40 l24 26 -44 -1 c-24 0 -56 -4 -71 -9z"/>
<path d="M2675 7229 c-125 -16 -311 -79 -332 -112 -9 -14 131 -1 199 19 48 15
237 91 247 100 6 6 -32 3 -114 -7z"/>
<path d="M11740 8470 l0 -40 45 0 45 0 0 40 0 40 -45 0 -45 0 0 -40z"/>
<path d="M3060 6185 l0 -45 40 0 40 0 0 45 0 45 -40 0 -40 0 0 -45z"/>
<path d="M11993 7985 c-40 -7 -94 -23 -120 -36 l-48 -23 41 -11 c23 -5 49 -16
58 -24 34 -29 12 -96 -49 -150 l-36 -31 79 0 c96 0 135 12 151 47 11 23 9 29
-13 50 -34 32 -33 51 9 109 59 83 60 84 28 83 -15 0 -61 -7 -100 -14z"/>
<path d="M10835 7820 c-16 -4 -65 -16 -107 -25 -90 -19 -130 -44 -109 -68 12
-15 15 -14 39 3 16 12 59 24 105 31 73 11 127 36 127 60 0 11 -13 10 -55 -1z"/>
<path d="M10313 7695 c-29 -12 -53 -41 -53 -64 0 -16 170 34 193 58 l21 21
-64 0 c-36 -1 -79 -7 -97 -15z"/>
<path d="M11500 7684 c-198 -45 -336 -97 -348 -133 -4 -10 0 -12 14 -6 11 4
62 14 114 22 166 25 244 42 269 61 28 21 67 70 60 76 -2 2 -51 -7 -109 -20z"/>
<path d="M9750 7530 c-58 -16 -436 -110 -840 -210 -1651 -409 -2550 -655
-3389 -925 -185 -59 -265 -90 -186 -71 17 4 154 34 305 66 1260 267 2417 569
3460 902 306 97 781 257 789 264 10 9 -41 -1 -139 -26z"/>
<path d="M10560 7449 c-97 -12 -168 -32 -260 -77 l-75 -36 33 -7 c41 -8 179 6
252 27 54 15 205 83 198 88 -11 10 -84 12 -148 5z"/>
<path d="M11952 7395 c5 -59 35 -105 69 -105 22 0 59 79 59 126 l0 34 -66 0
-66 0 4 -55z"/>
<path d="M9475 7333 c-31 -8 -40 -20 -25 -38 19 -23 75 -19 107 10 l28 24 -32
1 c-17 0 -37 2 -45 4 -7 2 -22 1 -33 -1z"/>
<path d="M9995 7316 c-61 -15 -119 -45 -165 -85 -31 -27 -33 -30 -14 -31 63
-1 314 95 314 120 0 13 -74 11 -135 -4z"/>
<path d="M7965 6856 c-18 -13 -17 -14 8 -31 30 -19 70 -14 100 13 13 12 15 17
5 24 -21 13 -93 9 -113 -6z"/>
<path d="M6197 6465 c-36 -12 -87 -51 -87 -65 0 -6 47 -4 107 6 32 5 93 47 93
65 0 13 -69 10 -113 -6z"/>
<path d="M7998 6366 c-12 -17 -38 -29 -85 -40 -79 -20 -98 -29 -89 -45 10 -15
31 -14 100 4 113 29 148 59 114 93 -16 16 -20 15 -40 -12z"/>
<path d="M6294 6239 c-31 -9 -94 -69 -94 -89 0 -6 9 -6 23 0 12 5 53 14 91 20
97 16 153 47 112 63 -30 12 -103 15 -132 6z"/>
<path d="M6743 6143 c-20 -7 -15 -31 8 -43 23 -13 65 -6 94 16 17 13 18 16 5
24 -16 10 -86 12 -107 3z"/>
<path d="M4655 6091 c-45 -11 -93 -39 -104 -60 -10 -17 -7 -18 72 -5 109 17
157 31 187 54 l25 20 -75 -1 c-41 -1 -88 -4 -105 -8z"/>
<path d="M4709 5906 c-62 -21 -150 -73 -164 -96 -11 -18 68 -10 110 10 41 20
148 110 130 110 -5 0 -40 -11 -76 -24z"/>
<path d="M4416 5779 c-14 -11 -31 -29 -36 -40 -10 -17 -7 -19 20 -19 31 0 90
45 90 69 0 18 -46 12 -74 -10z"/>
<path d="M3509 5690 c-30 -17 -67 -36 -82 -43 -32 -13 -32 -28 -6 -120 12 -44
12 -52 -4 -79 l-18 -31 57 6 c74 8 178 58 282 136 45 34 82 64 82 65 0 2 -171
-56 -200 -68 -10 -4 -21 3 -33 23 -21 35 -21 67 -2 101 8 14 14 28 15 33 0 16
-40 6 -91 -23z"/>
<path d="M3903 5539 c-39 -8 -64 -24 -123 -78 -30 -28 -38 -40 -25 -37 90 22
111 31 148 65 46 43 46 60 0 50z"/>
<path d="M3612 5105 c-30 -14 -72 -25 -94 -25 -40 0 -40 0 -34 -31 3 -17 22
-53 41 -79 38 -52 43 -84 20 -118 -16 -21 -15 -22 17 -16 44 9 146 57 183 88
l30 25 -30 1 c-17 0 -36 5 -43 12 -18 18 -14 67 8 117 11 24 20 45 20 47 0 13
-73 0 -118 -21z"/>
<path d="M430 7826 c0 -51 4 -61 30 -88 34 -34 59 -33 77 2 33 64 1 125 -71
137 l-36 6 0 -57z"/>
<path d="M435 7399 c-27 -15 -45 -39 -45 -58 0 -21 99 -64 136 -59 24 2 30 8
32 34 6 60 -72 112 -123 83z"/>
<path d="M2679 5845 c0 -3 -1 -22 -2 -42 l0 -38 61 -3 c60 -3 62 -2 62 22 0
33 -43 66 -86 66 -19 0 -34 -2 -35 -5z"/>
<path d="M11990 6633 c0 -10 -9 -29 -20 -43 -11 -14 -20 -35 -20 -47 0 -21 5
-23 45 -23 40 0 46 3 60 30 20 39 12 66 -25 85 -37 19 -40 19 -40 -2z"/>
<path d="M11054 6285 c-17 -67 56 -140 86 -85 8 15 6 21 -9 29 -10 6 -24 24
-31 40 -16 39 -38 47 -46 16z"/>
<path d="M637 5482 c-20 -22 -22 -75 -4 -90 12 -11 47 -16 80 -14 13 2 17 11
17 45 0 68 -54 102 -93 59z"/>
<path d="M639 5027 c-68 -45 -60 -118 10 -102 42 9 91 52 91 79 0 49 -46 60
-101 23z"/>
<path d="M710 4493 c-34 -13 -68 -45 -74 -69 -15 -59 52 -69 114 -17 57 47 27
111 -40 86z"/>
<path d="M2864 3778 c-11 -22 -15 -48 -12 -86 6 -65 31 -92 84 -92 l34 0 0 74
c0 66 -3 78 -26 105 -33 40 -59 40 -80 -1z"/>
<path d="M2897 3263 c-5 -8 -11 -140 -8 -180 2 -32 34 -47 75 -33 56 18 73 88
37 158 -24 46 -89 80 -104 55z"/>
<path d="M2865 2574 c-14 -31 -25 -69 -25 -85 0 -29 0 -29 65 -29 l65 0 0 69
c0 91 -5 101 -46 101 -32 0 -36 -4 -59 -56z"/>
<path d="M2970 1966 c0 -90 23 -113 107 -108 20 2 22 6 17 35 -10 57 -35 117
-54 127 -10 6 -30 10 -44 10 -25 0 -26 -2 -26 -64z"/>
<path d="M3034 1617 c-14 -30 -15 -39 -4 -52 8 -9 24 -15 39 -13 37 4 40 46 7
77 l-25 24 -17 -36z"/>
<path d="M12020 5900 c-30 -30 -24 -52 22 -85 23 -16 47 -34 54 -40 17 -12 62
12 70 37 9 28 -3 64 -28 88 -29 27 -91 27 -118 0z"/>
<path d="M12108 5478 c-16 -17 -28 -39 -28 -50 0 -22 18 -60 34 -71 22 -15 89
-28 112 -23 21 6 24 12 24 52 0 56 -24 100 -63 114 -43 14 -49 13 -79 -22z"/>
<path d="M9255 4736 c-88 -23 -189 -52 -223 -65 -71 -27 -132 -77 -132 -110 0
-22 14 -28 25 -11 15 24 112 62 242 95 149 38 225 70 263 110 22 23 22 25 4
24 -10 -1 -91 -20 -179 -43z"/>
<path d="M8429 4510 c-110 -18 -139 -29 -176 -63 -49 -45 -19 -57 88 -37 64
12 140 49 189 90 39 34 41 34 -101 10z"/>
<path d="M6849 4118 c-31 -15 -116 -44 -190 -64 -209 -56 -241 -66 -236 -70 2
-2 65 0 140 6 201 14 287 45 330 118 11 18 18 34 16 36 -2 1 -29 -10 -60 -26z"/>
<path d="M5075 3613 c-14 -17 -40 -29 -85 -39 -67 -16 -110 -37 -110 -54 0
-14 129 -13 171 1 69 23 97 70 62 101 -16 14 -20 13 -38 -9z"/>
<path d="M3756 3589 c-51 -12 -100 -43 -126 -79 -11 -15 -20 -31 -20 -34 0 -3
47 -6 105 -6 102 0 105 1 105 23 0 12 9 41 20 65 l19 42 -32 -1 c-18 -1 -50
-5 -71 -10z"/>
<path d="M4543 3450 c-39 -24 -42 -37 -8 -50 25 -10 68 0 79 18 6 9 -20 52
-32 52 -4 0 -22 -9 -39 -20z"/>
<path d="M4303 3379 c-40 -12 -74 -65 -48 -75 44 -17 195 42 195 77 0 11 -104
10 -147 -2z"/>
<path d="M3852 3164 c-132 -66 -140 -78 -97 -158 14 -27 25 -64 25 -86 0 -37
-2 -39 -35 -46 -19 -3 -40 -13 -47 -21 -11 -14 -5 -15 55 -11 119 7 160 62
178 241 6 59 9 111 7 115 -2 4 -40 -12 -86 -34z"/>
<path d="M8140 5429 c-41 -16 -97 -36 -125 -43 -67 -18 -71 -36 -8 -36 88 0
262 57 295 97 21 26 -82 14 -162 -18z"/>
<path d="M7283 5219 c-26 -7 -33 -15 -33 -34 0 -13 -8 -29 -17 -34 -14 -8 -15
-10 -3 -10 19 -1 110 66 110 79 0 12 -13 12 -57 -1z"/>
<path d="M6907 5099 c-35 -50 18 -84 66 -42 24 22 22 30 -13 48 -37 19 -36 19
-53 -6z"/>
<path d="M5885 4789 c-66 -16 -199 -47 -295 -70 -313 -74 -647 -174 -885 -265
-53 -20 -94 -39 -92 -41 7 -6 374 74 582 127 286 73 622 182 796 259 59 26 36
24 -106 -10z"/>
<path d="M12210 4104 l0 -87 38 6 c22 4 46 17 59 31 22 26 40 106 28 125 -3 6
-33 11 -66 11 l-59 0 0 -86z"/>
<path d="M12162 3728 l3 -43 63 -3 c61 -3 62 -2 62 23 0 40 -33 65 -86 65
l-45 0 3 -42z"/>
<path d="M7996 2999 c-41 -10 -106 -53 -106 -70 0 -12 56 -12 102 1 38 11 98
54 98 71 0 11 -42 10 -94 -2z"/>
<path d="M6530 2693 c-150 -34 -300 -76 -300 -84 0 -12 10 -11 163 3 92 8 130
15 134 25 3 8 23 23 44 34 22 11 39 24 39 29 0 12 2 12 -80 -7z"/>
<path d="M6043 2555 c-54 -25 -65 -41 -36 -52 18 -7 93 29 119 58 16 18 16 19
-7 19 -13 0 -48 -11 -76 -25z"/>
<path d="M5728 2444 c-3 -3 -57 -14 -119 -24 -63 -10 -127 -22 -144 -26 -39
-9 -102 -41 -111 -55 -11 -19 170 -4 246 20 64 20 180 91 149 91 -9 0 -18 -3
-21 -6z"/>
<path d="M5155 2289 c-71 -22 -177 -52 -235 -67 -75 -19 -105 -31 -105 -42 0
-22 51 -25 94 -6 20 9 85 27 145 41 127 30 195 57 227 91 28 30 31 30 -126
-17z"/>
<path d="M4638 2150 c-33 -10 -88 -48 -88 -61 0 -14 86 -11 123 5 18 7 43 25
56 40 l24 26 -44 -1 c-24 0 -56 -4 -71 -9z"/>
<path d="M5921 2067 c-31 -11 -81 -61 -70 -71 2 -3 39 4 81 13 77 18 128 43
128 61 0 14 -98 11 -139 -3z"/>
<path d="M5620 1981 c-68 -21 -126 -71 -82 -71 75 0 242 46 258 71 6 11 -141
10 -176 0z"/>
<path d="M4400 1905 c-30 -8 -122 -39 -204 -70 -171 -64 -288 -95 -365 -95
l-54 0 5 -51 c6 -56 28 -93 78 -127 49 -33 82 -39 94 -17 92 155 242 241 601
341 48 14 56 19 40 25 -31 12 -134 9 -195 -6z"/>
<path d="M3892 1419 c-9 -15 -24 -19 -63 -19 l-51 0 7 -32 c19 -86 75 -160
132 -174 30 -8 38 3 53 69 15 71 12 101 -11 131 -32 40 -53 48 -67 25z"/>
<path d="M12210 2923 l0 -43 40 0 c40 0 40 0 40 39 0 38 -1 39 -40 43 l-40 4
0 -43z"/>
<path d="M9465 2369 c-86 -47 -165 -74 -415 -139 -195 -51 -309 -92 -365 -131
l-30 -20 55 7 c111 14 671 174 749 214 48 24 83 64 79 87 -3 18 -9 17 -73 -18z"/>
<path d="M8169 1960 c-246 -47 -392 -97 -469 -160 l-25 -21 25 6 c189 38 594
166 626 198 9 9 15 10 -157 -23z"/>
<path d="M7450 1759 c-11 -15 -34 -22 -93 -28 -86 -10 -107 -21 -107 -59 0
-24 1 -25 56 -19 102 11 207 79 172 112 -11 11 -16 10 -28 -6z"/>
<path d="M7045 1638 c-25 -13 -45 -38 -45 -55 0 -18 81 -17 127 2 40 17 73 43
73 57 0 12 -132 9 -155 -4z"/>
<path d="M5380 1124 c-37 -16 -70 -42 -70 -56 0 -12 120 -8 155 5 35 14 68 36
79 55 11 18 -120 15 -164 -4z"/>
<path d="M5000 1011 c-49 -10 -97 -37 -110 -62 -11 -20 -10 -20 37 -14 81 11
151 34 180 60 l28 24 -50 0 c-27 -1 -66 -4 -85 -8z"/>
<path d="M4763 911 c-8 -12 -28 -20 -64 -24 -28 -4 -54 -9 -58 -13 -11 -10 32
-34 61 -34 33 0 78 42 78 71 0 24 -2 24 -17 0z"/>
<path d="M4474 859 c-25 -27 -52 -38 -145 -54 -95 -17 -144 -37 -159 -66 -12
-22 -12 -22 51 -15 121 13 232 51 273 91 17 17 22 65 8 65 -5 0 -17 -10 -28
-21z"/>
<path d="M4070 548 c0 -53 11 -72 37 -64 44 14 49 84 7 100 -36 14 -44 7 -44
-36z"/>
<path d="M3820 408 c-13 -8 -29 -26 -35 -42 -8 -23 -6 -30 9 -42 35 -25 85
-29 113 -7 40 29 47 60 20 78 -34 22 -79 27 -107 13z"/>
<path d="M2930 595 l0 -45 66 0 66 0 -6 28 c-10 39 -42 62 -87 62 l-39 0 0
-45z"/>
</g>
</svg>
