<?xml version="1.0" standalone="no"?>
<!DOCTYPE svg PUBLIC "-//W3C//DTD SVG 20010904//EN"
 "http://www.w3.org/TR/2001/REC-SVG-20010904/DTD/svg10.dtd">
<svg version="1.0" xmlns="http://www.w3.org/2000/svg"
 width="1280.000000pt" height="640.000000pt" viewBox="0 0 1280.000000 640.000000"
 preserveAspectRatio="xMidYMid meet">
<metadata>
Created by potrace 1.15, written by Peter Selinger 2001-2017
</metadata>
<g transform="translate(0.000000,640.000000) scale(0.100000,-0.100000)"
fill="#000000" stroke="none">
<path d="M8538 5604 c-111 -26 -231 -102 -264 -165 -7 -15 -14 -51 -14 -78 0
-44 -4 -55 -30 -78 -34 -30 -50 -76 -50 -145 0 -35 -4 -48 -14 -48 -8 0 -105
38 -216 85 -373 157 -552 212 -617 189 -16 -5 -35 -24 -45 -42 -23 -47 -22
-46 -68 -28 -78 31 -124 19 -235 -60 -42 -30 -54 -34 -84 -29 -55 10 -92 34
-102 65 -19 53 -171 88 -303 69 -71 -10 -92 -18 -142 -55 -17 -13 -50 -31 -74
-39 -50 -18 -85 -47 -106 -87 -24 -47 -37 -48 -235 -28 -409 41 -843 56 -1240
40 -582 -22 -938 -76 -1145 -174 l-91 -43 -42 -214 c-73 -368 -80 -391 -134
-408 -41 -14 -464 15 -747 50 -98 12 -192 35 -231 54 -15 8 -43 37 -62 64 -71
98 -169 155 -205 119 -20 -20 -14 -64 13 -96 14 -17 25 -37 25 -45 0 -27 -47
-54 -132 -77 -187 -50 -411 -154 -486 -227 -41 -38 -44 -45 -37 -75 17 -82 24
-189 25 -390 l0 -218 -59 0 c-87 0 -257 -39 -362 -83 -46 -19 -94 -69 -124
-126 -13 -26 -29 -52 -37 -58 -7 -6 -84 -15 -170 -21 -224 -15 -265 -37 -404
-211 -128 -161 -242 -375 -279 -526 -21 -90 -17 -133 15 -156 42 -31 157 -42
303 -28 70 6 131 9 134 5 3 -3 -4 -48 -17 -98 -20 -79 -23 -118 -23 -263 0
-189 11 -272 50 -390 35 -104 41 -74 11 57 -20 89 -23 130 -23 303 0 329 49
481 174 545 35 17 163 50 197 50 21 0 18 -11 -35 -156 -122 -339 -107 -669 45
-977 62 -124 95 -170 192 -264 47 -46 81 -83 75 -83 -39 0 -187 24 -228 37
-97 31 -168 95 -279 250 -33 46 -63 83 -67 83 -12 0 25 -82 67 -147 46 -73
145 -171 207 -207 41 -25 70 -31 215 -48 201 -23 388 -25 454 -5 79 25 177 86
248 156 112 111 187 239 245 419 l26 82 52 0 c268 0 945 29 1079 46 60 7 63
16 88 249 27 249 50 324 104 345 29 11 63 3 70 -16 3 -8 -2 -79 -10 -157 -19
-168 -14 -381 11 -502 76 -361 268 -658 490 -756 75 -33 180 -48 380 -55 247
-8 354 4 450 51 198 97 378 325 465 590 33 102 46 124 109 188 l56 58 4 91 3
91 107 -7 c58 -4 237 -14 396 -21 160 -8 291 -14 292 -15 12 -2 52 -61 95
-139 96 -174 171 -224 361 -241 239 -21 328 28 436 239 78 152 82 175 90 436
l6 230 75 12 c41 6 82 12 91 12 14 1 17 -23 22 -181 9 -267 48 -393 156 -508
54 -56 89 -69 212 -77 223 -15 349 91 426 360 25 85 27 107 27 284 1 105 4
194 8 198 10 10 279 35 384 35 103 0 109 -3 160 -98 19 -37 41 -61 70 -78 54
-32 166 -55 274 -57 83 -2 87 -1 148 37 l62 39 78 -9 c42 -5 122 -9 177 -9
149 0 190 27 268 170 50 94 29 88 317 104 107 6 271 16 363 23 187 13 187 13
187 -48 0 -81 78 -285 135 -352 33 -39 61 -48 224 -71 l134 -19 89 94 c49 51
98 96 109 99 13 5 32 -2 54 -19 45 -35 129 -56 251 -63 l101 -6 45 42 c62 57
102 136 143 286 19 71 37 130 38 132 5 5 507 50 649 58 122 7 180 25 186 57 2
9 -12 34 -31 55 -19 21 -38 52 -41 69 -12 53 -38 69 -125 72 -42 2 -110 -1
-152 -5 l-77 -9 2 101 c1 92 -1 104 -24 138 -35 50 -79 72 -199 96 -57 11
-109 25 -114 30 -7 7 -5 28 8 64 25 74 15 129 -36 201 l-40 56 103 0 c118 0
161 15 191 67 26 46 33 120 13 166 -15 36 -26 43 -231 142 -118 58 -484 229
-812 381 -2050 948 -2308 1072 -2392 1145 -74 65 -178 84 -303 53z m220 -35
c39 -13 43 -26 33 -91 -5 -29 -7 -56 -4 -60 2 -5 29 -8 60 -8 73 0 112 -29
152 -113 92 -194 73 -404 -49 -518 -90 -84 -175 -108 -324 -89 -119 15 -176
34 -212 71 -27 28 -29 36 -29 102 l0 72 -47 -3 c-36 -3 -51 1 -67 17 -29 29
-55 124 -55 203 -1 56 3 70 22 91 14 14 40 27 63 31 21 3 39 9 39 12 0 3 -11
19 -25 36 -30 35 -31 62 -6 104 33 55 176 132 271 147 53 9 148 7 178 -4z
m527 -298 c388 -188 401 -198 466 -335 76 -163 119 -338 119 -485 0 -96 -7
-121 -32 -121 -11 0 -122 30 -246 66 -806 233 -740 213 -761 238 -12 14 -9 17
20 23 24 4 53 25 94 68 116 119 166 243 146 360 -15 86 -52 199 -87 265 -16
30 -30 58 -32 62 -5 11 65 -21 313 -141z m-1815 51 c51 -23 171 -149 202 -212
31 -62 58 -159 58 -205 0 -50 -28 -164 -54 -220 -32 -71 -86 -128 -144 -153
-137 -59 -390 -49 -476 19 -21 16 -24 24 -15 35 9 11 4 23 -21 55 -47 58 -59
101 -60 207 0 50 -4 92 -8 92 -4 0 -18 -17 -31 -37 -18 -31 -21 -33 -17 -13 3
14 8 53 12 85 7 66 17 85 44 85 9 0 31 21 48 48 17 26 41 59 53 74 35 43 13
46 -29 5 -36 -35 -62 -47 -62 -29 0 12 60 66 101 90 63 38 128 23 201 -45 30
-28 30 -27 43 56 5 26 17 54 31 68 27 27 56 26 124 -5z m-765 -31 c39 -8 42
-31 10 -69 -14 -16 -25 -31 -25 -33 0 -2 39 -4 88 -4 105 -1 158 -22 148 -58
-50 -169 -59 -280 -31 -375 9 -29 13 -57 10 -62 -3 -5 -27 1 -52 12 -42 19
-60 20 -163 15 -64 -3 -122 -7 -129 -9 -7 -2 -38 37 -68 85 -62 100 -163 207
-246 262 -32 21 -57 45 -57 55 0 35 82 93 128 90 46 -3 50 -1 59 37 13 55 37
63 178 62 66 -1 133 -4 150 -8z m1154 -117 c192 -77 297 -127 328 -156 12 -12
28 -37 34 -57 15 -47 44 -78 85 -91 35 -12 53 -45 35 -63 -27 -27 -194 34
-269 99 -43 37 -115 64 -171 64 -29 0 -32 -2 -21 -15 7 -8 21 -15 31 -15 10 0
23 -8 28 -18 12 -23 158 -91 282 -133 52 -17 123 -45 159 -64 84 -42 113 -52
429 -140 146 -41 397 -112 556 -159 160 -46 332 -95 383 -109 95 -25 119 -37
108 -55 -9 -15 -92 7 -781 200 -766 215 -813 225 -935 194 -83 -21 -187 -70
-223 -104 -16 -15 -47 -62 -69 -104 -34 -66 -43 -77 -62 -73 -11 3 -91 22
-176 44 l-155 38 67 33 c127 62 192 153 229 320 28 126 22 169 -41 298 -54
112 -59 132 -33 132 9 0 91 -30 182 -66z m-1888 -87 c236 -39 281 -59 385
-166 67 -71 118 -158 138 -237 9 -37 21 -139 26 -228 9 -175 12 -187 60 -291
27 -58 34 -87 40 -170 7 -106 -6 -786 -18 -894 -7 -61 -9 -65 -37 -73 -16 -5
-162 -10 -323 -11 l-293 -2 0 420 c1 489 -7 620 -39 691 -37 83 -46 214 -29
457 18 267 16 305 -15 335 -12 13 -40 28 -62 33 -21 5 -184 13 -361 16 -294 5
-323 5 -323 -10 0 -112 -44 -753 -56 -815 -11 -54 -13 -87 -7 -95 17 -21 23
-73 38 -322 15 -237 21 -735 9 -735 -3 0 -41 25 -84 55 -141 100 -179 112
-385 129 -99 8 -312 21 -473 27 l-292 13 -84 -57 c-46 -32 -139 -108 -207
-170 -68 -62 -138 -123 -156 -135 -33 -23 -133 -42 -133 -26 0 5 16 31 35 58
58 82 79 148 79 251 0 81 -4 99 -37 180 -20 49 -37 97 -37 107 0 42 78 3 198
-100 69 -60 98 -76 108 -61 14 23 -179 184 -253 210 -25 10 -87 14 -188 14
-137 0 -154 -2 -193 -23 -64 -34 -120 -96 -155 -170 -28 -59 -32 -77 -32 -152
0 -76 4 -92 34 -155 44 -89 119 -166 185 -188 37 -13 85 -17 193 -17 109 0
143 -3 143 -13 0 -7 -31 -66 -68 -132 -37 -67 -74 -135 -81 -152 -17 -42 -39
-49 -51 -17 -6 14 -10 31 -10 37 0 7 -7 22 -15 34 -30 42 -91 47 -476 34 -195
-6 -615 -16 -934 -21 -858 -15 -1021 -27 -1123 -79 -21 -11 -60 -38 -87 -61
-82 -68 -110 -78 -247 -89 -167 -14 -249 7 -165 42 67 29 151 123 163 186 5
25 2 31 -24 45 -17 9 -49 16 -70 16 -72 0 -74 33 -8 148 90 159 208 299 291
347 58 33 136 48 257 49 158 1 161 -8 44 -147 -37 -43 -89 -111 -116 -152
-105 -156 -248 -436 -238 -466 5 -15 25 18 128 211 86 162 179 303 254 385 48
53 55 58 61 40 30 -84 82 -169 134 -218 71 -68 101 -77 217 -66 49 4 339 15
644 24 606 17 772 24 790 35 14 8 23 197 40 805 6 215 15 419 20 455 6 36 13
83 16 106 5 33 0 52 -26 104 l-32 63 32 -7 c26 -5 1286 -111 1860 -157 74 -5
167 -15 205 -20 65 -9 71 -8 87 11 37 46 106 279 127 433 16 112 14 241 -4
283 -27 66 -43 68 -455 72 -494 5 -816 -17 -925 -62 -19 -8 -40 -28 -49 -44
-8 -16 -37 -121 -65 -234 -49 -201 -79 -294 -88 -272 -5 14 89 437 118 529 12
41 29 71 46 84 48 38 281 101 508 136 165 26 425 33 1125 30 630 -2 636 -3
791 -28z m3870 -148 c64 -100 129 -333 145 -516 5 -59 2 -108 -11 -181 -16
-93 -17 -105 -2 -168 35 -149 29 -337 -13 -459 -31 -88 -47 -165 -65 -305 -18
-148 -40 -251 -62 -294 -30 -60 -103 -121 -103 -86 0 5 15 70 34 142 19 73 47
210 61 303 15 94 38 219 51 278 46 204 55 668 18 954 -16 125 -46 232 -100
350 -35 76 -35 77 -10 54 15 -14 40 -46 57 -72z m154 -1 c158 -69 1030 -475
1165 -543 80 -41 163 -88 186 -104 40 -30 95 -114 82 -126 -5 -6 -85 26 -436
170 -62 25 -120 45 -129 43 -20 -4 86 -54 367 -175 107 -47 203 -92 213 -100
21 -19 23 -127 4 -183 -12 -35 -13 -35 -67 -34 -35 1 -146 28 -305 73 -289 84
-915 271 -994 299 l-54 18 2 105 c1 57 -5 142 -14 189 -8 47 -15 100 -15 118
0 40 6 39 120 -17 52 -26 75 -43 74 -55 -2 -12 28 -32 105 -71 115 -57 321
-146 411 -176 75 -26 43 0 -65 50 -257 121 -281 146 -54 56 139 -55 191 -66
136 -31 -15 10 -150 69 -301 131 -392 160 -463 204 -518 320 -46 98 -44 99 87
43z m-5155 -31 c101 -28 121 -84 95 -258 -14 -99 -89 -436 -98 -445 -2 -2 -17
20 -32 48 -16 29 -62 87 -102 129 -74 76 -93 112 -93 175 0 18 -8 38 -20 49
-41 37 -112 45 -549 57 l-424 12 -58 -65 c-32 -35 -58 -61 -59 -57 -1 28 52
245 65 265 20 30 49 41 155 58 323 51 985 70 1120 32z m1005 -45 c3 -20 -1
-168 -10 -327 -9 -160 -13 -305 -10 -324 4 -19 25 -70 48 -114 l42 -79 3 -397
c4 -418 -2 -589 -22 -616 -16 -22 -154 -34 -450 -37 l-239 -3 5 440 c4 270 10
450 16 466 6 15 27 36 47 49 48 29 65 66 73 158 l7 77 131 6 c119 5 136 8 190
35 44 22 60 36 65 56 13 51 29 231 39 437 6 120 15 210 22 218 16 20 35 -1 43
-45z m-140 28 l30 -16 -1 -90 c-2 -122 -9 -134 -82 -134 -74 0 -161 -23 -220
-57 -26 -15 -82 -61 -124 -101 l-77 -74 5 233 c3 129 8 240 10 247 6 21 417
13 459 -8z m-519 -356 c6 -191 5 -210 -10 -223 -15 -13 -19 -13 -27 0 -12 19
-11 39 3 267 6 106 15 186 20 179 4 -8 11 -108 14 -223z m1649 132 c44 -19 55
-42 55 -115 0 -53 2 -61 19 -61 10 0 31 10 46 22 43 34 73 17 113 -64 25 -51
35 -85 39 -141 8 -102 -1 -138 -48 -197 l-41 -52 21 -22 c29 -31 26 -50 -15
-96 -78 -86 -265 -140 -322 -94 -28 23 -41 77 -42 172 l0 72 80 0 c85 0 132
15 144 46 5 13 2 15 -16 10 -13 -4 -53 -14 -90 -22 -64 -15 -69 -15 -100 3
-80 46 -118 169 -118 378 0 109 11 142 50 162 34 17 182 17 225 -1z m-2870
-55 c37 -6 40 -9 47 -46 4 -22 7 -102 7 -177 1 -125 -1 -138 -16 -138 -54 0
-473 50 -496 59 -38 15 -36 53 9 147 42 89 94 150 138 164 31 9 236 4 311 -9z
m4413 -1 c65 -30 145 -115 170 -183 36 -95 25 -245 -29 -414 -22 -67 -78 -139
-146 -186 l-38 -26 -135 20 c-74 10 -156 26 -182 35 -69 23 -111 75 -144 179
-24 78 -26 95 -22 208 8 197 42 263 163 323 131 64 280 82 363 44z m-3981 -9
c153 -9 165 -15 161 -75 l-3 -41 -100 0 c-92 0 -105 -3 -165 -32 -36 -17 -84
-43 -107 -58 l-43 -26 0 120 0 121 63 -1 c34 0 121 -4 194 -8z m1311 -19 c11
-13 12 -43 7 -132 -11 -189 -27 -219 -133 -241 -85 -17 -242 3 -242 31 0 4
-18 28 -41 54 -52 58 -48 77 27 156 114 120 332 195 382 132z m-3561 -22 c18
-10 44 -37 58 -59 22 -32 25 -43 15 -60 -24 -46 -80 -16 -80 43 0 14 -14 41
-31 61 -26 30 -28 35 -13 35 11 0 33 -9 51 -20z m6490 -26 c37 -8 268 -69 513
-134 245 -65 495 -131 555 -146 61 -15 117 -33 126 -41 37 -31 56 -227 24
-239 -8 -4 -73 8 -143 24 -175 43 -192 46 -192 33 0 -16 34 -28 198 -68 l142
-36 0 -66 c-1 -102 -17 -194 -36 -208 -32 -23 -160 -14 -529 37 -198 28 -468
64 -600 81 -132 17 -241 31 -242 32 -1 1 15 27 36 58 93 138 141 451 90 589
-28 76 -33 100 -21 100 6 0 41 -7 79 -16z m-4548 -91 c-1 -82 -3 -91 -9 -53
-8 41 -3 150 6 150 2 0 3 -44 3 -97z m3296 -19 c83 -14 209 -37 280 -52 l130
-28 3 -94 c2 -52 0 -110 -3 -127 -7 -41 -9 -41 -224 -12 -183 25 -254 22 -369
-16 -46 -14 -87 -25 -92 -23 -5 2 3 30 18 63 32 73 35 174 9 248 -28 78 -26
81 41 73 31 -3 125 -18 207 -32z m-2793 -11 c62 -28 131 -93 158 -149 36 -78
19 -81 -40 -8 -91 112 -164 155 -267 156 -76 0 -142 -28 -231 -101 -35 -28
-65 -51 -68 -51 -23 0 53 92 109 132 55 39 97 49 197 45 68 -3 108 -10 142
-24z m-2257 -48 c174 -31 321 -94 347 -149 9 -20 8 -30 -5 -49 -21 -33 -57
-36 -570 -47 -409 -9 -627 -5 -627 11 0 16 59 53 175 109 258 125 463 163 680
125z m2193 -1 c34 -10 27 -39 -23 -90 -42 -44 -46 -46 -62 -31 -10 9 -29 36
-43 62 -22 39 -23 47 -10 55 17 11 103 13 138 4z m-215 -82 c38 -33 7 -57 -63
-50 -43 4 -48 21 -16 53 26 26 45 25 79 -3z m360 -30 c9 -9 13 -22 9 -28 -9
-14 -63 -24 -91 -17 -21 5 -21 6 -4 25 16 18 46 35 64 37 3 1 13 -7 22 -17z
m621 2 c3 -9 9 -69 12 -133 7 -130 -2 -160 -44 -146 -38 11 -92 149 -92 233 0
35 4 42 28 50 43 16 89 14 96 -4z m6204 -46 c33 -71 52 -179 52 -293 0 -92 4
-115 29 -183 45 -119 50 -138 66 -277 15 -129 23 -168 65 -298 21 -64 21 -70
6 -85 -25 -25 -39 -3 -79 123 -36 112 -52 195 -62 320 -9 104 -23 173 -51 243
-22 57 -24 75 -22 205 2 125 -1 149 -20 201 -12 33 -22 65 -22 73 0 26 18 12
38 -29z m-1302 -29 c350 -95 507 -149 393 -134 -55 7 -540 152 -553 166 -16
15 2 11 160 -32z m1699 -129 c154 -76 294 -152 312 -168 36 -34 52 -90 35
-127 -6 -13 -30 -34 -54 -46 -80 -41 -232 -17 -552 88 l-49 16 6 97 c3 54 9
105 14 114 7 13 25 8 123 -35 285 -125 345 -150 364 -146 14 2 -26 26 -119 71
-381 184 -397 193 -409 241 -9 34 1 47 27 40 12 -4 148 -69 302 -145z m-1742
69 c119 -30 628 -167 797 -214 146 -41 443 -123 487 -135 l42 -11 30 -92 c42
-133 47 -187 22 -218 -18 -22 -25 -24 -108 -23 -68 1 -106 7 -166 28 -62 22
-84 26 -106 18 -33 -12 -51 -9 -196 29 -197 51 -753 161 -804 158 -57 -3 154
-56 405 -103 124 -22 220 -55 167 -56 -24 0 -454 62 -581 85 -113 20 -126 28
-118 73 3 21 9 83 13 140 5 86 9 102 21 97 8 -3 49 -8 91 -11 86 -6 83 4 -9
32 -30 10 -65 26 -78 38 -22 19 -44 80 -58 159 -8 46 -9 46 149 6z m-2658 -28
c89 -41 184 -176 205 -292 9 -47 7 -66 -10 -122 -24 -76 -104 -203 -158 -247
-90 -74 -269 -83 -392 -20 -79 41 -157 160 -167 254 -9 77 83 277 154 335 38
31 158 84 228 100 62 14 97 12 140 -8z m-4864 -126 c4 -66 7 -350 8 -631 l1
-511 -522 -5 c-468 -5 -628 -2 -642 12 -6 7 22 1147 29 1187 4 23 13 34 28 38
38 10 704 33 902 31 l190 -1 6 -120z m5088 83 c42 -6 82 -16 89 -21 7 -6 31
-41 53 -78 23 -40 62 -87 95 -115 l56 -48 -59 -16 c-32 -9 -84 -28 -117 -43
-90 -41 -85 -45 -106 77 -11 67 -44 145 -89 210 -35 51 -38 61 -14 52 9 -4 51
-12 92 -18z m-2543 -597 c-3 -234 -10 -429 -14 -433 -21 -21 -25 778 -5 952
l7 55 9 -75 c5 -41 6 -266 3 -499z m1760 324 c7 -2 13 -40 16 -97 3 -75 10
-105 33 -156 15 -34 25 -66 21 -69 -4 -4 -42 -10 -85 -14 -83 -7 -131 -26
-214 -86 l-49 -34 4 223 c1 123 6 228 10 234 7 10 231 9 264 -1z m1185 -59
c114 -26 187 -92 229 -203 66 -177 6 -414 -128 -507 -95 -65 -261 -75 -360
-21 -132 72 -215 238 -197 395 9 81 44 193 70 226 l22 28 25 -40 c32 -50 120
-132 126 -116 2 7 -12 30 -32 53 -37 43 -66 97 -66 121 0 60 177 96 311 64z
m668 -46 c812 -85 991 -108 999 -129 7 -19 -14 -216 -39 -356 -23 -126 -48
-187 -85 -204 -46 -21 -262 -31 -844 -40 -316 -5 -583 -12 -592 -16 -33 -13
-18 14 42 75 70 72 127 180 143 275 21 124 -19 270 -103 370 -27 33 -50 63
-50 68 0 11 13 10 529 -43z m2973 4 c180 -57 258 -122 258 -215 0 -57 -57
-129 -102 -129 -52 0 -203 35 -218 50 -12 12 -19 42 -23 106 -4 49 -13 115
-21 146 -7 32 -11 60 -8 63 9 9 30 5 114 -21z m-1482 -169 c158 -18 1149 -143
1212 -153 40 -6 45 -11 70 -62 36 -70 55 -164 39 -184 -6 -7 -35 -17 -64 -20
-62 -9 -96 -28 -162 -95 -27 -28 -54 -51 -59 -51 -5 0 -28 20 -51 44 -78 81
-245 120 -392 90 -12 -2 -42 -22 -68 -44 -25 -21 -62 -44 -83 -50 -49 -13
-801 -14 -837 0 -21 8 -24 13 -16 29 6 10 26 76 46 147 19 70 38 131 43 136 4
4 100 -8 212 -27 303 -50 502 -69 383 -36 -52 15 -276 55 -453 82 -80 11 -148
23 -152 26 -22 13 -1 158 24 175 20 12 160 9 308 -7z m-2650 -72 c0 -35 -22
-94 -36 -100 -15 -6 -74 15 -74 26 0 10 13 25 53 59 43 36 57 40 57 15z
m-6180 -100 l0 -106 -21 19 c-38 34 -159 174 -159 184 0 6 37 10 90 10 l90 0
0 -107z m1775 88 c50 -22 90 -68 124 -141 63 -138 0 -368 -119 -427 -53 -27
-170 -32 -224 -9 -54 23 -115 123 -141 232 -23 96 14 222 87 291 73 70 189 93
273 54z m3888 -51 c63 -30 122 -96 141 -159 8 -28 18 -92 22 -143 l6 -93 -33
-41 c-19 -22 -45 -57 -59 -77 -20 -31 -29 -36 -49 -32 -17 4 -39 -4 -75 -28
-64 -42 -86 -51 -86 -33 0 7 7 19 15 26 26 21 16 30 -25 24 -53 -9 -64 2 -95
96 -30 91 -58 123 -126 145 -27 9 -56 27 -63 38 -21 33 -28 103 -15 149 35
132 282 203 442 128z m-5867 11 c98 -60 166 -177 166 -289 1 -93 -23 -160 -80
-223 -56 -63 -109 -88 -180 -89 -64 0 -112 21 -160 68 -118 119 -114 383 8
483 76 63 188 85 246 50z m6283 -82 c85 -13 99 -22 106 -67 15 -94 26 -116 94
-184 52 -50 89 -76 159 -110 50 -23 91 -46 92 -49 0 -10 -186 -19 -411 -19
l-216 0 -43 -95 c-24 -52 -48 -99 -55 -105 -15 -12 -75 6 -75 23 0 7 14 32 31
57 103 153 126 296 74 474 -14 47 -25 89 -25 93 0 7 183 -4 269 -18z m4451
-23 c205 -30 303 -52 331 -75 27 -22 37 -111 19 -165 -20 -62 -42 -68 -270
-64 -183 3 -201 5 -227 24 -40 29 -79 107 -94 184 -6 36 -15 75 -20 86 -4 12
-5 25 -2 28 12 12 100 6 263 -18z m-7492 -132 c35 -7 22 -25 -43 -62 -73 -41
-132 -91 -297 -250 -70 -67 -143 -129 -162 -137 -20 -8 -64 -15 -98 -15 -35 0
-79 -4 -98 -10 -40 -11 -109 -76 -151 -142 -25 -38 -30 -55 -27 -95 2 -39 7
-50 26 -58 30 -13 28 -31 -4 -39 -35 -9 -324 -9 -361 0 -66 16 -68 43 -13 155
77 156 204 326 366 491 122 123 176 159 257 168 64 8 564 3 605 -6z m323 -30
c272 -80 425 -354 485 -870 20 -177 17 -531 -5 -558 -25 -30 -30 0 -36 195
-10 338 -35 452 -136 634 -132 239 -278 373 -455 419 -77 20 -153 20 -269 1
-49 -8 -90 -13 -92 -11 -8 7 129 107 187 136 141 71 218 84 321 54z m6141 -79
c3 -3 -16 -42 -43 -86 -119 -199 -138 -410 -55 -632 39 -104 43 -127 21 -127
-24 0 -112 96 -139 153 -36 77 -45 127 -46 243 0 203 75 381 185 438 30 16 67
21 77 11z m592 -1 c23 -9 20 -27 -10 -55 -65 -60 -104 -202 -104 -371 1 -110
14 -185 49 -262 26 -60 26 -66 1 -66 -32 0 -88 58 -102 103 -13 47 -18 475 -5
519 9 34 61 95 102 120 32 19 44 21 69 12z m-4769 -27 c43 -24 64 -58 72 -116
9 -63 8 -63 -335 -73 -169 -4 -364 -12 -434 -16 l-128 -7 0 87 0 88 243 0
c289 0 421 12 457 40 33 25 76 25 125 -3z m4404 2 c97 -59 151 -202 151 -401
0 -178 -41 -300 -132 -395 -88 -91 -221 -62 -290 63 -79 143 -78 447 1 603 64
125 184 183 270 130z m568 -6 c103 -49 168 -250 143 -448 -19 -154 -75 -253
-172 -305 l-44 -23 -52 27 c-105 53 -152 163 -152 355 0 131 18 220 57 292 56
105 137 142 220 102z m-10310 -113 c-6 -47 -31 -90 -52 -90 -22 0 -18 26 12
81 32 60 48 63 40 9z m4469 -177 c-3 -120 -9 -266 -12 -324 l-6 -107 -46 -6
c-24 -3 -145 -6 -267 -6 -166 0 -225 3 -232 13 -6 6 -22 75 -37 152 -15 77
-41 190 -57 250 -38 136 -47 209 -28 221 8 5 156 11 329 14 173 3 326 7 339 8
l24 2 -7 -217z m6767 203 c20 -10 23 -49 4 -64 -19 -16 -126 -30 -372 -47
-363 -25 -370 -24 -399 60 -17 51 -17 52 49 58 75 8 700 2 718 -7z m-8012 -42
c125 -37 249 -128 334 -244 310 -422 269 -1221 -81 -1600 -187 -201 -461 -259
-684 -145 -295 152 -497 650 -451 1115 16 156 33 216 96 345 144 294 319 482
495 531 66 18 226 17 291 -2z m6019 6 c18 -10 18 -13 3 -58 -23 -68 -45 -89
-106 -96 -29 -3 -293 -20 -587 -36 -294 -16 -717 -41 -940 -55 -223 -13 -535
-32 -693 -41 l-288 -16 -54 59 c-66 73 -127 102 -231 110 -78 6 -179 -9 -229
-34 -50 -25 -95 -74 -142 -156 -25 -43 -52 -81 -59 -84 -7 -3 -29 5 -49 17
-27 17 -35 28 -35 52 0 38 75 230 98 251 19 18 185 29 677 47 149 5 407 14
575 20 734 27 2025 39 2060 20z m2005 -99 c-15 -13 -216 -30 -430 -35 l-190
-5 145 15 c308 31 491 40 475 25z m-5607 -160 c108 -88 213 -173 232 -190 l35
-30 -35 -1 c-19 0 -177 -9 -350 -20 -173 -11 -351 -20 -396 -20 -116 0 -114
-1 -422 244 -110 87 -159 132 -150 136 28 15 155 23 483 30 187 3 355 7 373 8
29 2 58 -18 230 -157z m582 67 c0 -6 -20 -46 -45 -89 -113 -196 -153 -466
-100 -675 9 -32 38 -105 65 -162 52 -109 59 -132 36 -132 -23 0 -102 67 -140
119 -97 131 -144 342 -116 511 25 149 95 312 160 375 48 46 140 81 140 53z
m263 -18 c64 -40 132 -136 160 -224 19 -62 22 -91 21 -236 -1 -136 -5 -179
-22 -244 -51 -187 -132 -294 -244 -326 -99 -29 -228 86 -278 249 -61 196 -40
458 52 639 79 157 201 212 311 142z m-1818 -88 c50 -36 134 -99 188 -141 88
-69 97 -79 97 -109 0 -46 -25 -90 -56 -98 -14 -4 -42 -2 -62 4 -21 6 -89 16
-152 23 -161 15 -157 14 -164 50 -8 41 -8 332 0 354 8 19 10 17 149 -83z
m4540 89 c12 -21 -110 -35 -470 -56 -552 -32 -1295 -80 -1630 -105 -168 -12
-425 -13 -425 -1 0 31 406 64 1635 131 797 43 880 46 890 31z m-6697 -58 c4
-30 -74 -167 -116 -204 -40 -36 -100 -39 -150 -9 -59 36 -56 72 13 148 62 69
114 93 190 90 54 -3 60 -5 63 -25z m3287 7 c9 -15 -4 -50 -19 -50 -6 0 -27 13
-46 30 l-35 29 47 1 c26 0 50 -5 53 -10z m-7012 -59 c22 -17 10 -45 -41 -103
-50 -55 -107 -87 -125 -69 -13 13 15 155 35 178 15 18 108 14 131 -6z m9525
-47 c3 -35 -39 -98 -98 -146 -72 -58 -135 -53 -200 13 -44 46 -65 101 -49 130
15 30 63 24 99 -11 42 -41 87 -41 133 0 65 57 110 63 115 14z m-6622 -36 c6
-26 33 -82 58 -125 25 -42 46 -84 46 -93 0 -9 -9 -56 -19 -105 -11 -50 -29
-163 -41 -253 -22 -176 -32 -212 -54 -212 -15 0 -23 28 -28 99 -6 70 -31 44
-52 -52 -5 -20 -12 -27 -24 -25 -12 2 -18 16 -22 52 -3 27 -10 51 -17 53 -10
4 -33 -53 -33 -83 0 -6 -9 -19 -21 -30 -20 -18 -21 -18 -35 1 -8 10 -14 39
-14 63 0 55 -17 52 -39 -8 -20 -53 -60 -82 -85 -61 -11 9 -16 30 -16 63 0 64
-19 60 -41 -7 -28 -89 -79 -81 -79 12 0 24 -5 43 -10 43 -10 0 -15 -9 -40 -76
-10 -29 -44 -54 -72 -54 -7 0 -9 18 -4 54 9 79 -14 85 -39 12 -11 -33 -58 -72
-74 -62 -6 4 -11 28 -11 53 0 38 -2 44 -14 33 -8 -6 -16 -26 -18 -43 -3 -37
-38 -54 -83 -43 -25 6 -27 10 -21 42 4 19 4 39 1 45 -10 16 -35 -10 -35 -37 0
-30 -25 -54 -59 -54 -38 0 -50 16 -44 56 3 19 1 34 -4 34 -14 0 -33 -22 -33
-39 0 -23 -31 -51 -56 -51 -28 0 -39 15 -39 55 0 40 -18 44 -26 6 -9 -43 -28
-63 -58 -59 -24 3 -26 6 -25 56 2 75 -23 63 -40 -20 -7 -29 -34 -43 -66 -33
-11 3 -23 18 -26 33 -12 54 -13 55 -30 41 -9 -7 -14 -22 -11 -36 6 -30 -14
-45 -55 -41 -30 3 -33 6 -34 38 -3 67 -2 66 -19 50 -7 -8 -20 -33 -27 -55 -17
-53 -39 -51 -58 5 -19 55 -42 59 -50 10 -8 -46 -17 -60 -39 -60 -26 0 -41 20
-41 56 0 62 -42 52 -54 -12 -5 -23 -15 -39 -31 -46 -35 -16 -53 4 -57 60 -2
32 -7 47 -17 47 -18 0 -28 -20 -36 -68 -8 -47 -28 -44 -36 6 -10 60 -49 88
-49 34 0 -17 -2 -19 -12 -8 -10 9 -13 60 -12 189 0 145 4 197 23 287 31 146
57 228 78 247 44 38 75 40 668 49 319 5 630 10 690 12 61 2 222 3 359 2 l250
0 12 -47z m6462 45 c-10 -2 -26 -2 -35 0 -10 3 -2 5 17 5 19 0 27 -2 18 -5z
m-445 -20 c13 -12 -15 -33 -44 -33 -29 0 -44 13 -34 30 7 11 68 14 78 3z m131
-9 c9 -25 -44 -121 -90 -164 -101 -93 -257 -38 -272 96 -9 85 47 100 123 34
25 -22 54 -40 64 -40 9 0 41 20 70 45 54 46 94 57 105 29z m-8172 1 c3 -3 -7
-45 -22 -93 -61 -189 -89 -430 -74 -637 l9 -120 62 -6 c75 -7 98 -22 155 -96
82 -109 185 -132 281 -63 26 18 54 44 62 56 11 18 2 14 -43 -17 -99 -69 -159
-63 -249 24 -42 41 -58 87 -30 87 8 0 40 -22 71 -50 89 -78 122 -79 206 -3 45
41 53 45 62 30 8 -16 11 -16 35 1 22 14 56 18 185 20 87 2 158 2 158 0 0 -2
-13 -43 -29 -91 -57 -168 -129 -285 -240 -390 -119 -112 -265 -168 -389 -148
-246 40 -432 255 -523 606 -20 79 -23 112 -23 280 1 208 19 327 69 455 40 101
68 138 112 145 21 4 45 8 53 10 27 5 97 5 102 0z m7729 -26 c21 -21 79 -138
79 -159 0 -5 -15 -10 -33 -10 -60 0 -160 82 -181 148 -6 17 -3 24 16 31 42 17
96 13 119 -10z m543 -48 c20 -32 36 -61 36 -65 0 -8 -83 -8 -104 0 -20 8 -20
17 -1 82 9 29 20 50 25 47 5 -3 25 -32 44 -64z m-2296 -94 c6 -7 16 -42 21
-77 46 -284 -79 -672 -243 -757 -46 -24 -134 -28 -199 -9 -63 18 -104 60 -151
154 -76 152 -100 269 -94 462 6 188 13 197 168 214 80 9 83 5 64 -90 -34 -162
-2 -333 77 -416 133 -140 270 137 218 439 -6 35 -9 70 -5 78 7 20 128 21 144
2z m-222 -38 c13 -26 15 -57 12 -173 -3 -145 -13 -187 -50 -210 -25 -15 -63
25 -77 79 -12 47 -15 213 -5 263 15 73 90 99 120 41z m-3083 -116 c-31 -181
-38 -332 -24 -468 40 -365 182 -644 421 -827 38 -28 68 -53 67 -54 -1 -2 -51
2 -111 7 -116 10 -227 41 -303 86 -193 113 -351 402 -404 738 -21 131 -16 391
10 509 12 55 22 101 24 102 5 5 271 42 308 43 l36 1 -24 -137z m2373 44 c1 -1
5 -83 9 -181 l7 -179 -179 6 c-348 13 -593 30 -611 43 -14 10 -17 35 -20 166
l-4 153 398 -3 c220 -2 400 -5 400 -5z m202 -26 c10 -6 16 -54 22 -172 12
-231 44 -338 139 -479 52 -76 34 -90 -57 -44 -59 29 -148 128 -187 209 -41 83
-85 348 -69 418 16 74 19 77 81 77 32 0 64 -4 71 -9z m336 -100 c8 -62 47
-170 76 -212 29 -39 53 -37 91 11 53 66 61 45 12 -31 -68 -103 -153 -49 -182
116 -13 78 -21 203 -11 184 4 -7 10 -38 14 -68z m-5174 -471 c13 -9 11 -14
-13 -35 -37 -33 -102 -34 -142 -3 -26 20 -27 22 -9 35 21 15 142 18 164 3z"/>
<path d="M8887 5344 c-3 -3 7 -26 23 -51 38 -60 54 -131 54 -234 -1 -75 -5
-95 -33 -156 -37 -80 -40 -129 -5 -78 67 98 96 224 75 327 -20 97 -91 215
-114 192z"/>
<path d="M8662 5247 c68 -61 81 -97 56 -152 -11 -24 -38 -35 -38 -15 0 18 -34
10 -65 -15 -33 -26 -27 -30 23 -16 40 12 40 5 0 -36 -17 -18 -29 -36 -25 -39
9 -10 72 33 106 72 27 30 31 42 31 92 0 39 -6 66 -19 86 -23 34 -69 66 -96 66
-16 0 -10 -9 27 -43z"/>
<path d="M8470 5081 c0 -19 9 -40 23 -53 l22 -23 3 22 c4 26 -18 75 -35 81 -9
2 -13 -7 -13 -27z"/>
<path d="M8881 4938 c-11 -24 -22 -54 -26 -68 -7 -23 -6 -24 9 -11 21 17 56
84 56 106 0 29 -21 15 -39 -27z"/>
<path d="M9340 5052 c0 -4 15 -15 33 -26 66 -38 387 -196 398 -196 7 0 4 9 -7
21 -31 35 -424 221 -424 201z"/>
<path d="M9090 4786 c0 -9 124 -75 258 -136 129 -58 170 -71 157 -50 -17 27
-415 206 -415 186z"/>
<path d="M9149 4686 c17 -20 196 -106 236 -113 91 -15 -16 55 -159 103 -80 28
-93 29 -77 10z"/>
<path d="M9612 4559 c10 -29 158 -86 158 -62 0 13 -87 59 -129 68 -26 5 -32 4
-29 -6z"/>
<path d="M7390 5292 c0 -5 19 -17 43 -27 23 -10 75 -50 114 -88 40 -39 76 -68
79 -65 10 11 -23 62 -68 105 -57 56 -168 105 -168 75z"/>
<path d="M7410 5221 c0 -12 54 -58 91 -77 34 -17 37 -7 8 30 -31 39 -99 71
-99 47z"/>
<path d="M7440 5026 c0 -8 11 -34 25 -57 14 -24 25 -55 25 -69 0 -31 14 -55
28 -46 21 13 -28 160 -59 177 -15 7 -19 6 -19 -5z"/>
<path d="M7414 4956 c-3 -8 0 -25 7 -37 12 -23 12 -23 19 -4 7 18 -4 55 -16
55 -2 0 -7 -6 -10 -14z"/>
<path d="M7500 4604 c-41 -20 -104 -41 -139 -48 -67 -12 -88 -29 -49 -39 57
-15 278 75 278 114 0 14 -11 11 -90 -27z"/>
<path d="M6542 5128 c3 -7 18 -16 35 -20 19 -5 47 -27 73 -58 44 -52 70 -59
46 -11 -25 47 -92 101 -127 101 -19 0 -29 -4 -27 -12z"/>
<path d="M6550 5071 c0 -14 61 -62 70 -56 14 8 1 32 -25 49 -27 18 -45 21 -45
7z"/>
<path d="M7810 4862 c0 -10 45 -32 65 -32 21 0 18 17 -4 30 -24 12 -61 13 -61
2z"/>
<path d="M6013 4880 c-12 -5 -30 -21 -40 -36 -16 -25 -18 -58 -21 -299 -3
-307 1 -345 41 -359 32 -12 195 4 306 29 l71 17 0 260 c0 291 -4 312 -65 341
-29 14 -140 38 -240 52 -16 2 -40 0 -52 -5z m247 -78 c60 -29 64 -49 65 -312
l0 -234 -70 -13 c-38 -6 -113 -12 -166 -12 l-96 -1 4 248 c2 136 6 271 9 301
l6 54 106 -7 c68 -4 120 -13 142 -24z"/>
<path d="M2864 4100 c-29 -11 -41 -60 -19 -76 23 -17 54 -20 495 -54 217 -17
598 -49 845 -72 625 -58 715 -59 715 -12 0 35 -91 51 -430 79 -102 9 -250 22
-330 30 -129 13 -1059 97 -1200 109 -30 2 -65 1 -76 -4z m226 -50 c0 -5 -20
-10 -45 -10 -25 0 -45 5 -45 10 0 6 20 10 45 10 25 0 45 -4 45 -10z m203 -27
c-13 -2 -33 -2 -45 0 -13 2 -3 4 22 4 25 0 35 -2 23 -4z m282 -23 c-3 -5 -17
-10 -30 -10 -13 0 -27 5 -30 10 -4 6 8 10 30 10 22 0 34 -4 30 -10z m95 0 c0
-5 -11 -10 -25 -10 -14 0 -25 5 -25 10 0 6 11 10 25 10 14 0 25 -4 25 -10z"/>
<path d="M10124 4355 c45 -34 266 -113 266 -95 0 14 -82 53 -174 84 -90 30
-122 34 -92 11z"/>
<path d="M10850 4312 c0 -11 127 -69 228 -106 49 -17 72 -22 70 -14 -9 30
-298 146 -298 120z"/>
<path d="M10762 4269 c4 -13 111 -71 156 -84 16 -5 22 -2 22 9 0 15 -102 70
-154 82 -22 5 -28 4 -24 -7z"/>
<path d="M5675 3839 c-143 -11 -167 -47 -42 -65 45 -6 84 -17 95 -27 28 -25
67 -21 91 9 55 70 12 95 -144 83z m115 -39 c9 -17 8 -20 -10 -20 -13 0 -20 7
-20 20 0 11 4 20 10 20 5 0 14 -9 20 -20z"/>
<path d="M6635 4640 c-8 -13 35 -40 114 -71 55 -22 67 -24 69 -12 8 33 -9 65
-43 79 -39 16 -131 19 -140 4z"/>
<path d="M6717 4543 c-16 -16 -6 -43 19 -49 39 -10 55 13 25 37 -25 20 -34 23
-44 12z"/>
<path d="M6970 4287 c0 -40 -17 -118 -35 -159 -13 -33 24 -20 45 15 20 32 27
115 14 165 -10 37 -24 25 -24 -21z"/>
<path d="M8258 4437 c26 -28 102 -72 102 -60 0 12 -49 58 -77 72 -36 18 -48
13 -25 -12z"/>
<path d="M7947 4413 c-36 -68 -60 -184 -54 -263 8 -106 55 -230 88 -230 15 0
10 25 -22 107 -40 99 -43 190 -10 306 26 90 25 130 -2 80z"/>
<path d="M7966 4235 c-13 -36 -6 -140 14 -180 l20 -40 -6 104 c-5 108 -15 149
-28 116z"/>
<path d="M8426 4163 c-2 -10 -7 -31 -11 -48 -10 -48 -76 -138 -117 -160 -41
-22 -54 -41 -34 -48 18 -7 73 21 108 57 62 61 114 216 74 216 -8 0 -17 -8 -20
-17z"/>
<path d="M8744 4351 c8 -13 322 -141 346 -141 36 0 12 20 -69 57 -156 71 -295
114 -277 84z"/>
<path d="M9205 4201 c11 -19 482 -167 494 -156 14 14 -115 66 -310 125 -129
39 -196 50 -184 31z"/>
<path d="M9146 4121 c10 -10 77 -34 175 -61 120 -33 90 13 -33 51 -65 19 -160
26 -142 10z"/>
<path d="M8596 3881 c19 -18 97 -35 352 -77 36 -6 43 9 12 26 -17 9 -320 60
-358 60 -10 0 -12 -3 -6 -9z"/>
<path d="M10099 3970 c96 -45 478 -154 577 -166 l49 -5 -23 19 c-12 11 -41 23
-65 27 -23 4 -143 36 -266 71 -124 35 -245 66 -270 69 l-46 5 44 -20z"/>
<path d="M7530 3958 c0 -4 14 -35 32 -70 38 -76 46 -140 24 -207 -20 -61 -20
-71 -2 -71 54 0 67 158 21 252 -16 34 -74 108 -75 96z"/>
<path d="M7530 3734 c-12 -49 -25 -96 -28 -104 -8 -24 38 21 54 52 15 29 17
91 5 122 -5 14 -14 -6 -31 -70z"/>
<path d="M2460 4060 c-52 -4 -286 -11 -519 -15 l-424 -8 6 -566 c4 -311 10
-576 13 -588 9 -34 70 -37 481 -24 385 12 504 19 523 31 6 4 15 59 20 126 9
115 29 699 31 934 2 133 16 121 -131 110z m50 -45 c20 -24 31 -306 28 -705 -3
-340 -4 -369 -21 -388 -25 -27 -64 -36 -98 -22 -23 10 -29 20 -35 58 -12 83
22 941 42 1034 7 36 61 51 84 23z m-565 -576 l0 -540 -93 -2 -92 -2 0 548 0
547 53 1 c28 1 63 4 77 9 56 16 55 28 55 -561z m335 14 l0 -558 -98 5 c-67 3
-105 10 -117 20 -17 14 -18 36 -12 380 4 201 10 443 14 538 l6 172 104 0 103
0 0 -557z m-265 -441 c-4 -62 -10 -110 -13 -107 -16 15 -19 200 -11 606 4 239
11 449 16 465 10 36 17 -808 8 -964z m-363 943 c5 -16 9 -261 11 -544 l2 -513
-58 -2 -57 -1 0 170 c1 343 20 898 32 912 20 24 61 12 70 -22z m76 -509 c-3
-309 -9 -511 -15 -526 -18 -44 -26 207 -19 580 7 388 14 492 29 465 6 -11 8
-205 5 -519z m621 -129 c1 -326 -2 -418 -11 -415 -7 3 -16 22 -21 44 -10 43
-1 749 10 859 l8 70 6 -70 c4 -38 7 -258 8 -488z"/>
<path d="M6717 3694 c-14 -14 -7 -25 24 -36 28 -10 30 -13 27 -52 -3 -38 -1
-41 22 -41 20 0 24 4 22 23 -3 22 -1 22 54 16 46 -6 56 -4 52 7 -3 8 -29 19
-59 25 l-54 10 38 8 c51 10 47 22 -10 29 -27 3 -62 9 -78 12 -17 4 -33 3 -38
-1z"/>
<path d="M8220 3619 c0 -9 18 -57 40 -107 22 -49 40 -99 40 -110 0 -26 18 -39
26 -19 13 35 -37 163 -90 232 -13 17 -15 17 -16 4z"/>
<path d="M8230 3435 c0 -14 5 -25 10 -25 6 0 10 11 10 25 0 14 -4 25 -10 25
-5 0 -10 -11 -10 -25z"/>
<path d="M7721 3419 c-15 -44 -14 -164 3 -228 15 -55 59 -131 76 -131 16 0 12
13 -18 61 -46 73 -52 100 -45 220 3 60 4 109 1 109 -4 0 -11 -14 -17 -31z"/>
<path d="M8206 3105 c-38 -25 -73 -45 -78 -45 -5 0 -8 10 -6 23 3 21 0 22 -45
19 -38 -3 -52 0 -63 15 -14 17 -15 15 -10 -17 8 -46 58 -94 89 -84 78 22 197
98 197 125 0 15 -13 10 -84 -36z"/>
<path d="M8533 3483 c-24 -9 -13 -20 30 -32 38 -11 642 -101 673 -101 15 0 19
26 6 34 -5 3 -71 12 -148 21 -111 13 -319 45 -524 79 -14 3 -31 2 -37 -1z"/>
<path d="M9348 3384 c-24 -7 -24 -34 0 -27 10 2 61 -3 115 -11 53 -9 118 -16
144 -16 44 1 46 2 29 15 -10 7 -39 18 -65 24 -58 12 -200 21 -223 15z"/>
<path d="M8955 3330 c83 -24 575 -60 575 -43 0 16 -31 21 -211 38 -178 16
-416 19 -364 5z"/>
<path d="M8881 3292 c-20 -14 41 -32 116 -35 63 -2 84 6 66 24 -14 14 -164 23
-182 11z"/>
<path d="M8462 3050 c-72 -8 -86 -16 -46 -26 32 -8 397 3 434 13 l25 7 -25 7
c-32 9 -306 8 -388 -1z"/>
<path d="M11230 3200 c0 -13 63 -28 155 -36 105 -9 91 11 -21 31 -94 17 -134
18 -134 5z"/>
<path d="M10150 3191 c8 -5 62 -21 120 -34 203 -48 220 -51 232 -39 6 6 9 14
6 17 -3 3 -57 17 -119 30 -129 27 -263 42 -239 26z"/>
<path d="M10672 3140 c22 -13 171 -29 181 -20 15 14 -55 30 -127 30 -50 -1
-66 -3 -54 -10z"/>
<path d="M3065 3406 c-41 -18 -113 -98 -138 -154 -54 -123 2 -315 107 -363 50
-23 100 -24 157 -4 59 21 102 65 134 138 24 51 27 70 23 126 -13 178 -159 311
-283 257z m144 -53 c97 -73 128 -245 61 -345 -35 -52 -106 -108 -137 -108 -29
0 -112 41 -135 66 -53 61 -66 211 -24 299 25 54 44 74 91 100 38 20 108 14
144 -12z"/>
<path d="M7070 3306 c0 -2 19 -28 43 -59 23 -30 47 -63 53 -73 10 -18 44 -14
44 5 0 16 -111 131 -126 131 -8 0 -14 -2 -14 -4z"/>
<path d="M7050 3232 c0 -10 7 -28 16 -40 17 -24 4 -31 -16 -7 -16 20 -46 19
-54 -1 -15 -39 37 -62 88 -40 43 18 46 42 11 80 -28 30 -45 33 -45 8z"/>
<path d="M1079 3341 c-136 -86 -168 -298 -69 -454 48 -76 136 -106 213 -73 49
21 104 83 128 145 31 79 31 189 0 253 -41 85 -133 157 -202 158 -14 0 -45 -13
-70 -29z m153 -39 c64 -42 100 -117 101 -211 2 -158 -74 -249 -200 -239 -62 5
-85 23 -119 90 -66 130 -36 274 74 352 44 31 104 35 144 8z"/>
<path d="M7395 3090 c-10 -16 4 -30 32 -30 16 0 27 -7 30 -19 9 -34 118 -35
118 0 0 9 13 15 38 17 60 5 43 19 -38 31 -94 14 -172 14 -180 1z"/>
<path d="M11800 3140 c0 -17 38 -27 165 -45 182 -26 205 -28 205 -17 0 15 -47
28 -179 52 -126 22 -191 25 -191 10z"/>
<path d="M11058 2849 c-52 -30 -94 -163 -85 -268 10 -117 63 -211 120 -211 32
0 84 35 106 72 45 72 48 267 6 348 -31 59 -99 87 -147 59z m99 -106 c27 -41
25 -194 -3 -247 -27 -52 -39 -54 -61 -14 -14 25 -18 54 -17 123 0 139 38 203
81 138z m-109 -171 c-3 -100 -4 -105 -17 -77 -16 35 -21 212 -6 235 16 25 26
-42 23 -158z"/>
<path d="M11665 2840 c-36 -52 -55 -126 -55 -216 0 -126 22 -174 80 -174 59 0
104 97 104 225 0 90 -12 120 -67 173 l-34 33 -28 -41z m65 -35 c7 -9 10 -19 6
-22 -8 -9 -38 9 -44 25 -5 17 23 15 38 -3z m-11 -102 c6 -21 11 -47 11 -58 0
-38 -21 -95 -35 -95 -20 0 -37 61 -29 111 13 84 36 103 53 42z"/>
<path d="M4489 2366 c-114 -29 -227 -170 -264 -328 -19 -81 -19 -226 0 -307
34 -143 134 -274 229 -301 107 -30 208 21 288 144 130 202 109 545 -43 711
-69 75 -134 100 -210 81z m152 -84 c54 -39 100 -107 130 -193 34 -95 33 -265
0 -368 -80 -241 -256 -320 -401 -179 -105 101 -148 316 -101 501 33 126 91
215 170 258 57 31 144 22 202 -19z"/>
<path d="M4490 2289 c-51 -11 -122 -92 -150 -171 -31 -87 -40 -290 -16 -372
37 -127 132 -226 218 -226 65 0 150 83 190 185 29 74 40 185 28 276 -30 217
-136 338 -270 308z m113 -58 c34 -19 79 -88 102 -156 26 -75 31 -216 10 -294
-17 -68 -56 -154 -84 -185 -26 -29 -91 -58 -116 -52 -37 9 -114 92 -141 149
-56 124 -54 310 6 434 57 120 134 156 223 104z"/>
<path d="M7787 2450 c-66 -52 -108 -216 -88 -336 22 -127 59 -182 129 -191 33
-4 44 -1 74 26 59 52 82 119 81 236 0 114 -24 192 -75 251 -36 40 -81 46 -121
14z m63 -16 c0 -3 -15 -26 -32 -51 l-33 -45 0 -132 c1 -106 4 -137 18 -164 22
-41 41 -49 75 -31 15 7 30 15 35 17 4 2 7 -4 7 -12 0 -19 -56 -56 -86 -56 -25
0 -58 34 -77 80 -42 102 -28 244 34 340 33 51 59 75 59 54z m40 -106 c41 -91
7 -302 -45 -282 -36 14 -52 187 -25 255 12 32 38 69 47 69 2 0 13 -19 23 -42z"/>
</g>
</svg>
