<?xml version="1.0" standalone="no"?>
<!DOCTYPE svg PUBLIC "-//W3C//DTD SVG 20010904//EN"
 "http://www.w3.org/TR/2001/REC-SVG-20010904/DTD/svg10.dtd">
<svg version="1.0" xmlns="http://www.w3.org/2000/svg"
 width="1280.000000pt" height="952.000000pt" viewBox="0 0 1280.000000 952.000000"
 preserveAspectRatio="xMidYMid meet">
<metadata>
Created by potrace 1.15, written by Peter Selinger 2001-2017
</metadata>
<g transform="translate(0.000000,952.000000) scale(0.100000,-0.100000)"
fill="#000000" stroke="none">
<path d="M8117 9497 l-188 -21 6 -35 c3 -20 9 -45 11 -57 5 -19 -2 -21 -154
-38 l-160 -18 -5 -40 c-7 -49 -18 -57 -77 -59 -25 0 -87 -6 -139 -12 l-94 -12
-15 -45 c-8 -25 -19 -48 -23 -51 -5 -3 -87 -14 -183 -24 l-174 -18 -6 -30 c-3
-16 -6 -40 -6 -53 0 -13 -6 -24 -12 -24 -9 0 -304 -26 -344 -30 -1 0 -7 -27
-13 -59 l-12 -59 -47 -10 c-26 -6 -100 -21 -165 -33 l-119 -23 -23 -46 -23
-46 -196 -29 -196 -28 0 -49 c0 -32 -4 -48 -12 -48 -7 0 -107 -11 -223 -25
-115 -14 -213 -25 -217 -25 -5 0 -8 -27 -8 -59 0 -33 -4 -62 -8 -65 -5 -3 -93
-17 -195 -33 l-187 -28 -11 -40 c-5 -22 -12 -45 -14 -51 -2 -6 -32 -14 -67
-18 -34 -4 -103 -12 -151 -18 l-88 -11 -39 -57 -38 -56 -174 -22 c-95 -13
-180 -22 -189 -22 -11 0 -24 -20 -39 -59 -25 -69 -4 -60 -239 -97 l-174 -27
-23 -52 -23 -52 -98 -18 c-54 -10 -138 -25 -188 -34 l-90 -17 -22 -46 c-12
-25 -26 -49 -31 -52 -7 -4 -368 -56 -393 -56 -5 0 -23 -28 -40 -63 l-31 -63
-187 -23 c-102 -12 -194 -25 -203 -28 -14 -3 -18 -15 -18 -57 l0 -52 -212 -34
-211 -35 -25 -55 c-14 -30 -26 -56 -27 -58 -2 -2 -123 -25 -270 -52 -147 -27
-268 -50 -269 -52 -2 -2 -29 -36 -61 -76 -32 -40 -56 -74 -54 -76 2 -2 21 -11
41 -19 l38 -16 0 -778 c0 -428 3 -937 7 -1131 l6 -354 -51 26 c-29 15 -52 24
-52 22 0 -3 39 -28 86 -56 47 -29 83 -54 81 -57 -8 -8 -361 -123 -377 -123 -9
0 -84 51 -166 112 -116 88 -144 114 -127 116 12 2 27 10 33 18 7 8 20 14 30
14 10 0 20 7 24 15 4 11 13 14 30 9 19 -5 25 -1 30 21 4 15 4 30 1 33 -3 3 -8
-4 -12 -16 -3 -15 -13 -22 -29 -22 -12 0 -26 -4 -29 -10 -3 -5 -14 -10 -25
-10 -10 0 -20 -7 -24 -15 -3 -8 -16 -15 -30 -15 -13 0 -26 -7 -30 -15 -3 -8
-16 -15 -30 -15 -14 0 -28 -5 -31 -10 -4 -6 -2 -9 5 -8 10 3 318 -212 319
-223 1 -7 -326 -86 -445 -106 l-101 -17 -54 39 c-104 75 -124 89 -114 78 6 -6
44 -38 86 -71 l76 -60 6 -68 c10 -100 8 -307 -3 -473 -6 -79 -11 -146 -13
-147 -1 -2 -35 5 -75 15 -87 22 -151 14 -227 -27 l-50 -27 -3 -445 -2 -446 53
-32 c109 -66 193 -59 305 26 l32 24 0 240 c0 132 5 305 12 386 6 81 12 324 12
539 1 216 3 393 5 393 3 0 71 -51 152 -112 146 -111 149 -114 160 -163 20 -90
22 -262 6 -415 -9 -80 -19 -176 -23 -213 l-6 -68 -82 79 c-81 78 -196 165
-196 148 0 -3 20 -19 45 -36 25 -17 87 -73 138 -124 58 -59 158 -140 272 -223
249 -179 230 -169 260 -149 14 9 25 21 25 26 0 21 18 9 30 -20 7 -17 15 -29
17 -26 4 3 -22 63 -33 75 -2 2 -15 -11 -29 -28 -15 -17 -30 -31 -35 -31 -10 0
-1 40 14 59 9 12 7 12 -12 2 -17 -9 -21 -18 -16 -33 8 -26 11 -28 -185 117
l-162 120 8 155 c4 85 8 253 8 373 0 119 1 217 3 217 1 0 84 -61 183 -136 163
-123 180 -138 175 -160 -4 -13 0 -37 8 -52 10 -19 11 -33 5 -44 -5 -10 -6 -30
-2 -45 6 -25 8 -23 15 22 5 37 3 56 -7 72 -15 22 -11 53 6 53 5 0 27 -23 49
-51 l40 -51 -1 44 c-1 34 -2 38 -8 18 -7 -24 -8 -23 -34 21 -21 36 -65 73
-217 184 -105 76 -193 141 -195 145 -3 4 37 22 88 40 50 17 155 54 231 81 77
27 144 49 149 49 15 0 387 -285 387 -297 0 -2 -9 -2 -20 2 -15 5 -23 0 -32
-19 -8 -19 -17 -25 -30 -20 -11 3 -20 -1 -24 -11 -4 -9 -13 -14 -22 -10 -13 5
-13 3 -1 -11 12 -14 14 -14 25 0 7 10 18 14 28 10 12 -5 20 2 28 23 9 23 17
30 37 29 l26 -1 -1 -330 c-1 -181 -5 -338 -9 -348 -6 -14 -14 -17 -33 -12 -18
4 -28 1 -39 -15 -10 -15 -21 -18 -39 -14 -13 3 -24 2 -24 -2 -1 -25 -18 -36
-38 -25 -14 7 -23 8 -27 1 -4 -6 -3 -10 2 -9 4 1 16 -1 27 -6 13 -6 23 -2 35
13 11 15 23 20 38 16 15 -4 25 0 33 16 8 15 17 19 31 15 13 -4 28 0 40 11 23
20 84 44 115 44 12 0 25 8 29 18 5 14 4 15 -6 5 -7 -7 -27 -13 -45 -13 l-32 0
-7 138 c-8 138 0 423 13 497 6 31 12 41 30 43 12 2 28 13 37 24 14 21 15 21
35 3 17 -16 23 -17 30 -6 5 9 17 12 31 8 15 -4 27 0 35 11 10 14 14 14 29 2
14 -12 18 -12 26 1 5 8 9 20 9 27 0 8 16 4 50 -13 53 -27 58 -25 35 15 -20 35
-19 37 15 32 23 -3 30 -1 30 13 0 12 6 16 20 12 14 -3 21 1 26 17 6 19 8 17
20 -17 7 -21 11 -44 8 -52 -3 -7 -1 -22 4 -32 8 -13 7 -22 -4 -34 -13 -14 -12
-19 7 -43 16 -20 18 -30 10 -40 -8 -10 -6 -20 9 -39 l20 -26 -20 -6 c-15 -5
-19 -12 -14 -30 3 -13 1 -33 -5 -44 -9 -16 -8 -28 4 -52 12 -23 13 -34 5 -44
-8 -10 -8 -19 0 -35 9 -16 8 -25 -1 -36 -8 -10 -9 -21 -2 -37 6 -12 7 -31 2
-42 -11 -29 -11 -55 1 -55 6 0 10 16 10 35 0 41 3 42 39 16 l27 -20 72 45 72
46 0 79 c0 43 3 79 6 79 3 0 180 -127 393 -282 261 -191 393 -281 409 -280 12
1 22 -4 22 -11 0 -10 282 -220 411 -307 5 -3 -3 -29 -18 -58 -19 -39 -24 -60
-19 -86 7 -35 47 -78 93 -99 23 -10 23 -13 23 -174 l0 -163 -27 5 -28 5 26
-12 c23 -10 27 -19 33 -71 3 -33 6 -82 6 -108 0 -48 1 -49 56 -86 l55 -36 47
15 c26 9 111 39 189 68 l141 53 32 -23 c17 -12 30 -24 28 -26 -8 -7 -256 -66
-417 -98 l-173 -35 -112 81 c-61 45 -117 85 -124 91 -6 5 -12 7 -12 5 0 -3 54
-46 119 -96 l119 -92 6 -57 c16 -160 17 -225 7 -423 -16 -301 -19 -334 -38
-319 -11 10 -13 27 -8 85 l7 72 -73 23 c-49 14 -103 22 -161 23 -47 1 -84 -1
-82 -3 2 -3 -19 -16 -48 -30 l-53 -26 0 -449 0 -449 58 -32 c33 -18 76 -36 97
-39 50 -8 120 16 183 62 l48 35 -3 76 c-4 76 10 632 16 638 2 2 16 -3 32 -12
16 -8 33 -15 37 -15 25 0 143 -91 250 -191 73 -69 205 -176 330 -267 222 -161
227 -164 260 -112 16 27 19 26 42 -16 16 -31 20 -33 26 -17 4 10 8 25 8 33 0
9 -3 7 -8 -5 -7 -18 -9 -17 -25 13 -15 29 -36 43 -36 24 0 -5 -10 -19 -21 -31
-20 -21 -23 -22 -31 -6 -7 12 -5 22 7 35 17 18 16 39 -1 84 -4 11 -1 16 10 16
9 0 16 7 16 15 0 13 -4 12 -21 -4 -20 -18 -21 -23 -9 -51 11 -26 10 -33 -5
-50 -11 -13 -15 -26 -9 -42 6 -19 4 -21 -7 -12 -8 6 -95 72 -194 147 l-180
136 9 143 c4 79 9 259 10 400 0 142 4 257 8 255 4 -1 93 -67 198 -147 180
-137 190 -146 184 -173 -4 -18 0 -37 11 -53 10 -15 14 -32 9 -42 -14 -32 -11
-146 5 -171 14 -21 13 -24 -8 -41 -20 -14 -22 -20 -12 -38 7 -12 14 -22 17
-22 2 0 0 9 -6 21 -13 23 -14 22 18 38 l23 12 -21 34 c-16 25 -18 38 -11 58 5
14 6 38 2 54 -4 15 -3 38 2 50 7 16 6 28 -6 46 -15 24 -13 67 4 67 5 0 28 -26
51 -57 l43 -57 3 37 c2 20 -1 45 -7 54 -8 14 -9 9 -4 -19 3 -21 3 -38 0 -38
-3 0 -18 23 -34 51 -24 45 -53 70 -240 206 -117 85 -213 156 -213 158 0 2 26
12 58 23 31 11 147 52 258 90 l201 70 144 -110 c79 -60 172 -131 206 -156 65
-49 76 -64 43 -55 -14 4 -23 -2 -32 -22 -9 -20 -17 -26 -35 -22 -16 3 -24 -1
-28 -15 -6 -17 -8 -17 -28 -3 -29 21 -33 19 -47 -15 -9 -21 -19 -30 -36 -30
-21 0 -24 -5 -24 -35 0 -37 -13 -47 -24 -19 -4 9 -9 14 -12 11 -7 -6 27 -56
38 -57 4 0 8 19 10 43 2 34 7 43 24 45 12 2 26 14 33 28 7 17 17 24 26 20 8
-3 22 -9 30 -12 8 -3 15 -1 15 5 0 6 11 11 24 11 17 0 27 8 35 29 11 24 17 28
44 26 25 -2 31 -7 29 -21 -2 -11 -4 -173 -6 -360 -2 -364 -3 -376 -50 -367
-17 4 -28 -2 -40 -18 -14 -21 -19 -22 -36 -11 -18 11 -22 9 -32 -13 -12 -27
-27 -32 -46 -13 -6 6 -14 9 -17 6 -3 -3 6 -13 19 -22 25 -15 26 -15 42 9 12
18 22 24 36 19 13 -4 28 2 43 16 16 15 30 20 44 15 14 -4 23 0 31 15 6 11 21
20 33 20 12 0 33 7 45 16 12 8 30 14 41 12 19 -3 51 18 51 35 0 5 -8 3 -17 -5
-10 -9 -32 -17 -49 -20 l-31 -4 -7 95 c-14 202 -5 564 15 619 5 13 17 22 29
22 11 0 27 11 36 25 l17 26 24 -23 c22 -21 25 -21 34 -6 6 10 16 14 30 11 15
-4 27 0 35 12 13 18 14 18 34 0 20 -18 20 -17 31 13 l11 31 49 -24 c61 -31 63
-31 44 5 -21 41 -19 47 15 42 23 -3 30 0 30 12 0 10 9 16 25 16 19 0 25 5 26
23 0 16 6 11 20 -22 13 -30 16 -47 9 -51 -8 -5 -8 -14 1 -32 8 -19 8 -31 0
-46 -8 -16 -6 -25 10 -46 17 -21 18 -30 9 -41 -9 -11 -7 -20 9 -44 l21 -30
-21 -6 c-16 -5 -19 -12 -15 -30 3 -13 1 -35 -5 -48 -9 -19 -7 -31 6 -56 13
-26 14 -35 4 -47 -9 -11 -9 -20 0 -40 8 -19 9 -30 0 -40 -6 -7 -8 -22 -4 -34
11 -34 -4 -102 -21 -96 -37 15 -46 15 -17 0 18 -10 36 -14 40 -11 3 4 7 32 7
62 l1 55 150 59 c83 33 256 101 385 151 129 50 314 123 411 160 96 38 183 72
192 76 12 4 17 1 17 -12 0 -15 35 -35 151 -86 l151 -67 26 19 c15 10 477 200
1027 420 550 221 1392 560 1870 752 479 192 1201 483 1605 645 404 162 742
301 750 309 8 7 47 69 85 138 65 116 73 126 113 141 l42 17 0 56 c0 49 6 68
44 134 l44 77 -44 28 -44 28 0 1218 c0 1210 0 1219 20 1224 22 6 26 18 10 28
-6 4 -507 559 -1114 1233 l-1103 1227 -179 62 c-99 34 -413 143 -699 243 -286
100 -662 231 -835 292 -173 60 -346 120 -383 134 -38 13 -78 23 -90 23 -12 -1
-107 -11 -210 -22z m603 -179 c300 -113 1281 -480 1500 -560 47 -18 88 -35 93
-38 4 -3 -55 -31 -132 -62 l-139 -55 -118 45 c-66 24 -258 97 -429 162 -170
65 -557 211 -860 325 l-550 208 -52 51 c-29 28 -52 53 -53 56 0 3 91 3 202 0
l203 -5 335 -127z m-510 -72 c107 -41 339 -129 515 -196 675 -256 906 -344
1073 -407 l174 -66 -131 -54 -131 -54 -323 122 c-177 67 -452 171 -612 231
-159 60 -409 154 -555 209 -522 197 -478 178 -511 225 -16 23 -29 45 -29 48 0
5 87 10 250 14 83 2 88 1 280 -72z m-245 -168 c138 -53 372 -142 520 -198 149
-56 387 -146 530 -200 143 -54 337 -127 430 -163 94 -35 177 -66 185 -69 8 -2
-52 -31 -133 -63 l-146 -58 -108 41 c-59 22 -333 126 -608 231 -275 104 -671
255 -880 334 l-380 144 -11 51 c-7 28 -10 52 -9 54 2 2 84 1 182 -3 l178 -5
250 -96z m-419 -119 c284 -107 641 -243 1079 -409 176 -67 393 -149 483 -183
89 -34 162 -64 162 -67 0 -3 -67 -33 -149 -66 l-148 -61 -139 52 c-77 29 -242
92 -369 140 -126 48 -365 138 -530 200 -165 63 -444 168 -620 234 -175 67
-322 124 -326 129 -4 4 -10 31 -14 59 l-7 53 169 3 c92 1 169 4 169 5 1 1 109
-39 240 -89z m-711 -65 l110 -6 500 -190 c275 -104 628 -238 785 -297 157 -60
372 -142 478 -182 174 -66 191 -74 170 -85 -13 -6 -76 -33 -141 -59 l-118 -48
-282 106 c-155 58 -448 169 -652 245 -203 77 -521 197 -705 266 -184 69 -342
130 -350 134 -8 5 -19 37 -26 71 l-11 63 66 -6 c36 -3 116 -9 176 -12z m74
-275 c190 -72 427 -162 526 -199 99 -38 266 -100 370 -140 105 -40 309 -117
455 -172 146 -55 270 -103 277 -106 6 -4 -60 -36 -147 -71 l-159 -64 -388 146
c-1216 457 -1618 609 -1621 612 -1 1 -5 25 -9 54 -4 39 -3 51 8 52 21 2 247
15 298 17 34 2 117 -26 390 -129z m3528 59 c24 -9 301 -305 1080 -1156 577
-629 1058 -1156 1069 -1171 21 -26 21 -28 6 -109 -12 -61 -20 -82 -31 -81 -9
0 -73 10 -144 22 l-127 22 -1095 1174 c-602 646 -1095 1177 -1095 1180 0 5
280 126 299 130 3 1 19 -4 38 -11z m-4045 -169 c439 -166 528 -200 733 -277
116 -44 386 -146 600 -227 215 -81 401 -152 415 -157 22 -8 6 -17 -140 -77
-146 -59 -168 -66 -190 -55 -14 6 -268 103 -565 215 -297 111 -740 278 -985
370 l-445 167 -8 47 c-4 26 -5 50 -2 54 7 6 160 16 297 19 75 2 86 -1 290 -79z
m4806 -1202 l1052 -1117 0 -83 0 -83 -144 25 -145 26 -1072 1150 c-589 633
-1082 1162 -1095 1176 l-25 26 133 56 133 55 55 -56 c31 -32 529 -560 1108
-1175z m-5142 1019 c164 -62 466 -177 669 -254 204 -77 514 -195 690 -262 176
-67 326 -125 333 -129 21 -12 -305 -144 -326 -132 -9 5 -157 62 -327 126 -171
65 -402 152 -515 195 -239 90 -606 229 -905 341 -283 107 -270 100 -300 158
-14 28 -25 53 -25 55 0 3 69 7 153 9 83 1 175 4 203 5 43 2 94 -14 350 -112z
m4763 -1096 l1102 -1170 -16 -62 c-9 -35 -20 -72 -24 -84 l-9 -21 -141 21
-141 21 -981 1055 c-540 580 -1031 1107 -1090 1171 l-109 116 143 61 c78 33
147 61 153 61 6 1 507 -525 1113 -1169z m-5327 996 c78 -30 463 -174 853 -321
391 -147 779 -293 862 -324 84 -32 155 -60 158 -63 10 -9 -338 -148 -349 -139
-6 5 -101 42 -211 84 -110 41 -465 175 -790 297 -324 122 -689 259 -809 305
l-219 82 -18 46 c-10 26 -18 47 -16 48 15 4 323 37 354 38 27 1 88 -17 185
-53z m4965 -1143 c668 -710 1097 -1173 1094 -1183 -1 -8 -6 -42 -10 -75 l-6
-60 -93 4 c-51 1 -124 6 -162 10 l-70 6 -1085 1164 c-596 641 -1082 1167
-1080 1170 9 8 289 129 302 130 7 1 506 -524 1110 -1166z m-5029 841 c273
-102 727 -271 1007 -376 281 -105 514 -194 518 -198 12 -10 -316 -140 -328
-130 -6 5 -164 66 -350 135 -187 69 -491 182 -675 251 -1053 391 -1025 380
-1022 398 2 9 12 37 22 61 l19 45 156 0 156 0 497 -186z m4652 -997 l1092
-1159 8 -81 c4 -45 6 -84 4 -85 -4 -6 -317 28 -335 36 -9 4 -481 507 -1049
1117 -568 611 -1053 1131 -1078 1157 -25 26 -43 50 -40 54 14 13 274 122 290
121 9 -1 507 -523 1108 -1160z m-5340 949 c124 -47 432 -162 685 -256 253 -95
610 -228 793 -296 183 -68 337 -124 342 -124 35 0 -12 -25 -167 -87 l-176 -71
-231 88 c-127 48 -350 134 -496 190 -146 55 -364 139 -485 185 -121 47 -359
138 -530 203 l-310 119 3 54 c2 29 5 56 8 58 3 3 53 8 112 11 229 14 204 18
452 -74z m4932 -1053 c580 -615 1070 -1137 1091 -1159 35 -40 37 -45 44 -133
l6 -91 -34 1 c-19 0 -102 10 -185 22 l-151 22 -1076 1154 c-592 635 -1077
1158 -1077 1161 0 5 307 138 322 139 4 1 481 -502 1060 -1116z m-5380 903
c106 -41 348 -133 538 -206 190 -73 401 -154 470 -180 69 -26 280 -107 470
-180 190 -73 351 -135 359 -140 12 -6 -30 -24 -329 -140 l-45 -18 -85 34 c-78
31 -457 176 -1475 565 -214 82 -410 158 -435 168 l-45 18 0 61 c0 33 2 63 5
66 5 5 230 22 327 25 43 1 87 -12 245 -73z m5024 -1102 l1089 -1156 3 -79 3
-79 -183 6 -183 6 -35 36 c-52 55 -2040 2190 -2083 2238 l-37 41 162 71 c90
38 166 70 169 71 3 1 496 -519 1095 -1155z m-4819 670 c466 -179 920 -353
1008 -386 88 -34 164 -64 168 -68 4 -4 -70 -37 -164 -75 l-172 -68 -56 21
c-31 11 -267 102 -526 202 -258 100 -668 258 -910 352 -242 93 -466 179 -497
191 -63 23 -65 27 -44 97 l13 45 144 5 c79 3 154 7 166 8 12 1 404 -145 870
-324z m4398 -814 c582 -619 1073 -1141 1092 -1161 l35 -37 -11 -73 c-7 -40
-13 -74 -14 -75 -1 -1 -80 7 -175 18 l-172 20 -59 61 c-211 220 -2089 2242
-2086 2245 10 10 311 131 322 129 6 -1 487 -508 1068 -1127z m-5528 926 c76
-30 208 -81 293 -114 149 -58 378 -147 900 -349 422 -163 593 -230 643 -248
26 -10 47 -20 47 -24 0 -6 -358 -141 -374 -141 -3 0 -161 59 -349 131 -188 72
-502 192 -697 267 -195 74 -499 190 -675 258 l-320 122 -3 54 c-1 29 1 58 6
65 5 7 59 15 147 21 245 16 229 18 382 -42z m4444 -346 c200 -212 685 -727
1078 -1145 l716 -760 -3 -77 -4 -78 -171 0 c-117 0 -179 4 -195 13 -24 13
-2143 2289 -2137 2295 10 11 332 141 342 139 6 -1 175 -175 374 -387z m-4677
79 c204 -78 416 -159 471 -180 1212 -462 1200 -457 1175 -467 -235 -89 -325
-122 -337 -122 -7 0 -217 81 -466 179 -631 250 -1509 597 -1527 603 -12 4 -55
95 -47 99 6 3 279 27 316 28 35 1 125 -29 415 -140z m4991 -1013 c742 -784
1084 -1154 1081 -1165 -3 -9 -10 -43 -15 -75 -6 -33 -12 -60 -13 -61 -2 -1
-79 5 -173 12 -132 11 -174 18 -186 31 -9 9 -491 526 -1072 1148 l-1055 1132
156 65 c86 36 165 65 174 64 10 -1 506 -519 1103 -1151z m-5220 794 c292 -115
738 -292 992 -392 255 -101 463 -185 463 -188 0 -4 -15 -11 -32 -17 -18 -7
-111 -39 -205 -73 l-173 -61 -332 127 c-183 70 -400 152 -483 184 -82 32 -384
146 -670 255 -286 109 -524 201 -528 205 -5 4 -2 31 5 61 l13 54 195 26 c107
15 202 27 210 28 9 0 254 -93 545 -209z m4814 -944 l1073 -1139 -7 -86 c-4
-47 -8 -87 -9 -88 -6 -7 -368 26 -375 33 -4 5 -481 521 -1060 1147 -579 626
-1051 1141 -1048 1143 12 12 324 133 338 131 8 -1 498 -515 1088 -1141z m-416
-163 l1066 -1142 -6 -80 c-3 -44 -9 -84 -13 -90 -4 -8 -66 -9 -209 -5 l-203 7
-1051 1144 c-579 629 -1053 1147 -1055 1152 -3 9 377 161 394 158 6 -1 491
-516 1077 -1144z m-4447 746 c539 -209 988 -384 999 -388 14 -6 -31 -25 -170
-71 l-190 -63 -115 37 c-101 33 -642 210 -1700 558 -168 55 -321 105 -340 111
-19 6 -38 14 -42 17 -5 3 13 27 40 53 l47 46 230 40 c127 21 237 39 246 40 9
1 457 -170 995 -380z m3979 -929 l1065 -1144 0 -84 0 -84 -192 7 c-106 4 -197
10 -201 12 -14 8 -2099 2305 -2095 2308 7 7 343 134 351 132 4 -1 486 -517
1072 -1147z m-5372 1016 c98 -36 148 -71 3608 -2585 l256 -186 160 -179 c133
-148 162 -185 166 -215 2 -20 4 -37 3 -38 -1 -1 -283 202 -626 451 -344 248
-1277 924 -2075 1501 -797 577 -1483 1073 -1522 1102 l-73 54 0 64 c0 36 2 65
5 65 2 0 46 -15 98 -34z m4516 -709 c342 -373 800 -875 1018 -1115 218 -240
414 -456 436 -478 l39 -42 -14 -78 -14 -79 -105 4 c-57 2 -141 6 -187 10 l-82
6 -1060 1149 c-583 632 -1060 1152 -1060 1155 0 9 381 150 396 148 6 -1 291
-307 633 -680z m-4086 557 l237 -83 783 -579 c430 -318 1046 -775 1369 -1014
l588 -434 156 -175 c86 -96 168 -187 183 -203 14 -16 20 -26 13 -21 -18 10
-3596 2595 -3602 2603 -3 3 4 2 15 -2 11 -5 127 -46 258 -92z m1622 -1530
l2140 -1555 3 -77 c3 -72 2 -75 -15 -60 -16 14 -1236 898 -3426 2483 l-856
620 -1 73 c0 39 3 72 8 72 4 0 970 -700 2147 -1556z m2445 332 l1072 -1149
-35 -86 c-35 -86 -35 -86 -69 -83 -18 2 -84 9 -146 16 l-113 12 -33 -61 c-19
-33 -45 -83 -60 -112 -14 -28 -30 -54 -35 -57 -5 -3 -91 3 -192 13 -164 18
-184 22 -204 43 -12 13 -487 527 -1055 1143 -568 616 -1044 1132 -1057 1146
l-24 27 221 72 221 73 23 -24 c13 -13 463 -490 1001 -1059 538 -569 1016
-1074 1063 -1123 80 -82 104 -98 116 -79 3 5 -471 517 -1052 1139 -581 622
-1065 1139 -1075 1150 -17 20 -15 21 165 86 101 36 186 65 189 64 3 -1 489
-519 1079 -1151z m-3260 917 l135 -47 696 -531 697 -531 257 -290 c310 -348
300 -336 255 -303 -315 231 -2519 1855 -2529 1864 -7 7 69 -16 170 -51 101
-36 245 -86 319 -111z m810 -1422 l2145 -1558 3 -73 c2 -55 0 -71 -10 -68 -8
3 -15 29 -18 70 -5 72 -21 98 -71 119 -25 10 -39 9 -84 -6 l-53 -18 -184 132
c-100 72 -1013 731 -2028 1464 l-1845 1333 -3 82 c-2 45 -1 82 1 82 1 0 968
-701 2147 -1559z m9132 1362 c-3 -26 -19 -34 -275 -135 -150 -59 -467 -184
-706 -278 -238 -94 -436 -169 -438 -166 -8 7 7 176 15 176 4 0 76 -9 161 -20
85 -11 155 -19 157 -17 1 1 19 41 40 90 l37 87 41 0 c23 0 75 -9 116 -20 41
-11 84 -20 96 -20 28 0 50 27 59 70 9 50 25 88 38 93 7 2 75 -1 151 -7 l139
-11 22 50 c12 27 25 60 29 73 7 22 9 22 129 16 67 -3 127 -7 134 -9 7 -2 20 9
30 25 22 37 31 38 25 3z m-9300 -1425 c1085 -787 1990 -1444 2010 -1458 l37
-27 -69 -27 c-39 -16 -75 -24 -82 -20 -7 4 -295 212 -640 461 l-627 454 -288
282 -288 282 -197 69 -196 70 -819 591 -818 592 -3 81 c-2 45 -1 82 2 82 3 0
893 -644 1978 -1432z m-26 1267 l162 -57 288 -320 c331 -368 375 -417 354
-402 -548 414 -1189 900 -1200 911 -8 7 41 -6 110 -30 69 -25 198 -70 286
-102z m1716 -1032 c596 -636 1084 -1159 1085 -1162 2 -3 -28 -60 -66 -126
l-68 -120 -140 0 -141 0 -1066 1220 c-586 671 -1062 1223 -1058 1226 8 8 340
117 359 118 7 1 500 -519 1095 -1156z m7606 1027 l-3 -41 -113 -45 c-63 -24
-118 -44 -123 -44 -5 0 -9 26 -9 58 l0 58 -515 -204 -514 -205 -3 -61 -3 -61
-100 -42 c-55 -23 -105 -42 -112 -42 -7 -1 -13 16 -15 42 -2 23 -7 41 -13 40
-9 -2 -223 -80 -880 -322 l-130 -48 -3 -60 -3 -61 -124 -50 -125 -50 0 49 c0
27 -3 49 -8 49 -4 0 -230 -89 -502 -198 l-495 -198 -3 -51 -3 -51 -152 -61
c-84 -34 -157 -61 -164 -61 -7 0 -13 19 -15 48 l-3 49 -514 -198 c-282 -109
-516 -200 -519 -204 -3 -3 -5 -29 -3 -59 l2 -53 -190 -77 c-105 -42 -196 -76
-201 -76 -6 0 -10 20 -10 45 0 25 -5 45 -10 45 -6 0 -140 -50 -298 -111 -383
-148 -639 -247 -682 -263 -33 -13 -35 -16 -40 -71 l-5 -57 -142 -57 -143 -58
0 76 0 77 283 111 c155 62 444 176 642 253 198 78 484 190 635 250 495 195
940 370 1223 481 152 60 402 158 555 218 295 116 771 303 1222 481 805 317
1290 508 1895 745 220 87 407 161 415 166 12 6 16 0 18 -26 2 -19 2 -53 0 -75z
m-10478 -590 c404 -293 741 -538 748 -545 11 -10 -302 94 -370 123 -10 4 -278
196 -597 427 l-580 420 -1 79 0 78 33 -24 c17 -14 363 -265 767 -558z m10480
441 l0 -78 -67 -25 c-38 -14 -92 -35 -120 -47 l-53 -21 0 79 0 78 118 46 c64
26 118 46 120 47 1 0 2 -35 2 -79z m-305 -323 c4 -200 8 -367 8 -372 2 -9
-874 -335 -899 -336 -8 0 -10 96 -7 358 3 196 8 360 12 364 8 8 852 347 867
348 8 0 13 -106 19 -362z m-10402 -128 c284 -206 515 -375 514 -376 -1 -2 -78
25 -171 58 -103 36 -171 56 -175 50 -3 -6 -171 109 -374 256 l-367 265 0 80 0
79 28 -19 c16 -10 261 -187 545 -393z m10707 272 l0 -77 -67 -26 c-38 -15 -92
-36 -120 -48 l-53 -21 0 78 0 77 118 47 c64 26 118 47 120 47 1 1 2 -34 2 -77z
m-10892 -322 l352 -254 0 -69 0 -68 -53 38 c-29 21 -196 141 -370 267 l-317
230 0 68 c0 65 1 68 18 56 10 -7 177 -128 370 -268z m9460 225 c2 -2 -21 -12
-50 -23 -29 -11 -271 -107 -538 -212 -267 -106 -609 -241 -760 -300 -151 -59
-452 -178 -668 -263 -322 -127 -391 -151 -386 -135 3 11 16 50 28 86 l23 67
170 -4 169 -3 53 91 52 91 158 0 159 0 33 74 33 73 168 -1 169 -1 32 70 c18
39 36 76 40 83 6 9 53 12 176 12 l168 0 29 75 29 75 167 0 c185 0 170 -6 184
75 15 90 1 84 191 78 92 -3 169 -7 171 -8z m1425 -155 c-10 -8 -215 -90 -226
-90 -4 0 -7 32 -5 71 l3 71 115 46 115 47 3 -69 c2 -38 -1 -72 -5 -76z
m-10850 -254 l317 -230 0 -69 c0 -59 -2 -68 -16 -63 -8 3 -175 121 -370 262
l-354 256 0 74 0 75 53 -38 c29 -21 195 -141 370 -267z m9575 178 l-3 -76 -50
-20 c-27 -11 -78 -30 -112 -43 l-63 -24 0 78 0 79 98 40 c137 57 133 58 130
-34z m-276 -316 c2 -205 3 -374 2 -376 -2 -4 -907 -333 -908 -330 -1 2 0 165
2 364 l2 361 443 176 c243 97 445 176 449 177 3 0 8 -168 10 -372z m1556 290
l-3 -72 -110 -43 c-60 -24 -113 -43 -117 -43 -5 0 -8 31 -8 69 l0 69 113 45
c61 25 116 45 120 46 4 1 7 -31 5 -71z m-10546 -623 c2 -54 0 -74 -8 -71 -7 3
-172 120 -368 262 l-356 257 0 78 0 78 364 -265 364 -265 4 -74z m9266 468
l-3 -77 -105 -42 c-58 -24 -108 -43 -112 -43 -5 -1 -8 34 -8 77 l0 77 108 42
c59 23 111 42 115 42 4 1 7 -34 5 -76z m1280 -15 l-3 -72 -195 -76 c-107 -42
-352 -139 -545 -214 -192 -76 -521 -206 -730 -288 -209 -83 -515 -203 -680
-268 -165 -65 -462 -182 -660 -260 -198 -78 -484 -191 -635 -250 -263 -103
-494 -194 -1295 -510 -198 -78 -495 -195 -660 -260 -165 -65 -473 -186 -685
-270 -505 -199 -789 -310 -796 -310 -3 0 -4 32 -2 72 l3 71 145 57 c113 45
146 54 148 43 3 -9 10 -12 20 -8 10 4 243 90 520 193 497 183 502 186 502 213
0 26 7 30 148 85 81 31 166 65 189 74 27 12 43 15 45 8 4 -12 19 -7 651 226
202 75 372 136 377 136 6 0 10 13 10 28 0 27 6 31 158 91 86 35 163 65 170 68
7 3 12 -3 12 -15 0 -17 34 -6 283 96 155 63 379 154 497 202 132 54 216 93
218 103 3 15 237 111 252 102 4 -2 81 23 171 56 90 33 211 78 269 99 129 46
441 162 532 196 51 19 68 30 70 47 2 17 23 29 102 60 55 21 113 40 130 42 17
2 121 36 231 77 110 41 334 124 497 184 263 96 298 111 298 130 0 18 18 29
113 67 61 25 116 45 120 46 4 1 7 -31 5 -71z m-10818 -362 c135 -98 251 -183
258 -190 9 -9 12 -35 10 -84 l-3 -71 -360 260 c-198 143 -364 265 -369 272 -5
8 -6 43 -2 80 l8 66 106 -78 c59 -43 217 -157 352 -255z m481 228 c74 -25 303
-104 509 -174 206 -70 416 -142 465 -159 l90 -31 470 -468 c259 -258 514 -510
568 -562 l97 -94 0 -101 c0 -56 -3 -197 -7 -313 l-6 -210 -57 -21 c-31 -12
-60 -21 -64 -21 -3 0 -6 141 -6 313 l-1 312 -517 522 -517 521 -540 201 c-297
111 -545 201 -550 201 -7 0 -9 -171 -7 -490 1 -269 0 -490 -3 -490 -3 0 -24 9
-45 20 l-40 20 0 535 c0 441 2 535 13 535 8 0 74 -21 148 -46z m9059 -27 l0
-74 -106 -42 c-59 -23 -108 -40 -109 -39 -2 2 -5 34 -7 73 l-3 70 100 42 c55
23 106 42 113 42 8 1 12 -20 12 -72z m1280 -9 l0 -73 -88 -34 c-86 -34 -571
-225 -1322 -521 -212 -83 -531 -209 -710 -280 -179 -71 -497 -196 -707 -279
-211 -83 -555 -219 -765 -302 -470 -185 -913 -360 -1418 -559 -645 -255 -1067
-421 -1470 -580 -212 -84 -391 -155 -397 -157 -10 -4 -13 14 -13 71 l0 77 38
16 c34 14 169 68 972 383 151 59 413 162 583 229 169 67 444 175 612 241 168
66 443 174 613 241 169 67 431 170 582 229 151 59 426 167 610 240 184 73 459
181 610 240 151 59 424 166 605 238 182 71 488 192 680 267 193 76 490 193
660 261 171 67 313 123 318 123 4 1 7 -32 7 -71z m-10910 -303 l360 -260 0
-78 c0 -43 -4 -77 -9 -75 -5 2 -171 120 -370 263 l-360 260 -1 78 c0 48 4 77
10 75 5 -1 172 -120 370 -263z m8370 176 l0 -79 -102 -40 c-165 -63 -148 -66
-148 26 l0 78 118 47 c64 25 120 46 125 46 4 1 7 -35 7 -78z m1260 -34 l0 -74
-92 -36 c-51 -20 -101 -39 -111 -43 -16 -6 -18 0 -15 66 l3 72 105 43 c58 24
106 44 108 44 1 1 2 -32 2 -72z m-8992 31 l52 -21 0 -124 0 -125 -37 4 -37 3
3 -68 2 -67 -30 0 -31 0 0 93 c0 52 -3 149 -7 217 -6 119 -6 123 13 116 10 -4
43 -17 72 -28z m7446 -135 c3 -93 9 -260 12 -373 l6 -206 -456 -165 -456 -166
1 296 c1 163 4 327 8 366 l6 69 430 172 c237 95 433 172 436 173 4 1 9 -74 13
-166z m2819 6 c-4 -4 -170 -72 -368 -149 -666 -262 -1269 -500 -2335 -920
-728 -287 -1213 -478 -1675 -660 -165 -65 -460 -181 -655 -258 -1739 -685
-1832 -722 -1841 -722 -5 0 -9 35 -9 78 l0 79 208 81 c114 44 403 158 642 252
239 95 548 216 685 270 138 54 401 157 585 230 426 168 858 338 1245 490 168
66 443 174 613 241 169 67 431 170 582 229 151 60 446 176 655 258 209 82 535
211 725 285 190 75 480 189 645 254 l300 118 3 -74 c2 -41 -1 -78 -5 -82z
m-9765 -70 c213 -83 396 -157 407 -163 12 -6 246 -240 520 -519 l500 -508 3
-51 c3 -41 1 -49 -10 -41 -7 5 -197 141 -421 302 -294 211 -413 292 -427 288
-15 -4 -20 0 -20 16 -1 33 -889 623 -931 619 l-29 -4 0 106 c0 69 4 106 11
106 6 0 185 -68 397 -151z m-1148 -153 l365 -263 3 -92 3 -93 -54 39 c-29 21
-196 141 -370 268 l-317 230 0 87 c0 49 1 88 3 88 1 0 167 -119 367 -264z
m8380 177 l0 -78 -108 -42 c-59 -23 -115 -45 -125 -49 -16 -6 -18 0 -15 72 l3
78 120 48 c66 26 121 47 123 47 1 1 2 -34 2 -76z m2540 -57 l0 -74 -107 -42
c-60 -24 -290 -114 -513 -202 -471 -186 -862 -340 -1365 -538 -198 -78 -507
-200 -687 -271 -181 -71 -475 -187 -655 -258 -181 -71 -490 -193 -688 -271
-198 -78 -495 -195 -660 -260 -165 -65 -462 -182 -660 -260 -349 -137 -724
-285 -1278 -504 -148 -58 -271 -106 -273 -106 -2 0 -4 33 -4 73 l0 73 308 122
c169 66 492 193 717 282 226 89 534 210 685 270 151 60 426 168 610 240 184
73 459 180 610 240 260 102 584 230 1225 482 154 61 426 168 605 238 304 120
577 227 1365 537 176 69 419 166 540 214 121 48 221 88 223 88 1 1 2 -32 2
-73z m-3855 5 c-6 -5 -136 -59 -290 -119 -154 -61 -464 -183 -690 -272 -225
-89 -534 -211 -685 -270 -151 -59 -333 -131 -404 -159 -71 -29 -130 -50 -133
-47 -2 2 19 50 47 106 l52 103 101 -8 c56 -4 127 -8 157 -9 l55 -1 40 83 39
82 192 0 192 0 51 95 52 95 184 0 184 0 15 53 c8 28 18 64 22 80 l6 27 187 1
c102 0 194 4 205 8 12 5 27 33 43 84 l24 77 181 0 c112 0 178 -4 173 -9z
m1315 -128 l0 -78 -58 -21 c-31 -12 -88 -33 -125 -47 l-68 -26 3 75 3 76 120
49 c66 26 121 48 123 49 1 0 2 -35 2 -77z m-8374 -199 c201 -146 363 -268 361
-270 -4 -4 -265 122 -327 156 -8 5 -84 48 -168 97 -84 48 -173 99 -197 112
l-45 24 0 74 c0 40 3 73 6 73 3 0 170 -120 370 -266z m1208 -14 l406 -275 -38
-17 c-20 -10 -44 -17 -52 -15 -16 2 -831 560 -826 565 4 4 90 20 97 18 4 0
189 -125 413 -276z m9706 161 l0 -78 -167 -66 c-93 -36 -386 -152 -653 -257
-267 -106 -620 -245 -785 -310 -328 -129 -845 -333 -1445 -570 -212 -84 -544
-215 -737 -291 -1115 -439 -1586 -625 -2203 -869 -592 -234 -889 -350 -895
-350 -3 0 -5 35 -5 78 l0 77 298 117 c771 303 1090 429 1372 540 168 66 442
174 610 240 168 66 440 173 605 238 165 65 451 178 635 250 640 252 897 353
1223 481 180 71 477 188 660 260 182 72 487 192 677 266 256 101 770 306 808
322 1 1 2 -34 2 -78z m-9807 -255 l377 -269 0 -470 c0 -374 -3 -468 -12 -460
-7 5 -182 133 -388 283 -206 150 -385 282 -397 293 -19 17 -23 31 -23 83 0 59
-1 62 -29 74 -30 12 -41 40 -41 101 0 32 6 34 44 19 l26 -10 0 214 0 214 -35
21 c-34 20 -35 22 -35 82 l0 61 35 -6 35 -7 0 46 0 46 33 -23 c19 -13 203
-144 410 -292z m6005 167 l-3 -77 -144 -58 c-79 -32 -153 -60 -163 -64 -16 -5
-18 2 -18 74 l0 78 153 61 c83 33 158 61 165 62 10 1 12 -18 10 -76z m-6513
-91 l25 -12 0 -190 c0 -185 -1 -190 -19 -180 -11 5 -22 10 -25 10 -3 0 -6 -38
-6 -84 0 -78 2 -85 25 -100 23 -15 25 -23 25 -85 0 -63 2 -71 26 -88 25 -18
25 -20 18 -105 l-7 -86 -39 -22 c-22 -12 -42 -19 -46 -15 -4 4 -7 257 -8 563
-1 306 1 523 3 481 3 -69 6 -77 28 -87z m7775 55 l0 -74 -107 -41 c-60 -22
-116 -43 -125 -47 -16 -6 -18 0 -18 67 l0 74 123 46 c67 26 123 47 125 47 1 1
2 -32 2 -72z m-1635 -269 c-3 -178 -8 -350 -11 -383 l-5 -61 -450 -163 c-247
-90 -451 -162 -453 -160 -2 2 -1 166 2 364 l5 360 451 182 c248 100 455 182
459 183 5 0 6 -145 2 -322z m-6895 225 c77 -43 140 -81 140 -84 0 -9 -225
-100 -330 -134 l-86 -28 -131 94 c-73 52 -132 97 -132 100 -1 7 357 127 382
128 10 1 81 -34 157 -76z m11068 -30 l-3 -87 -135 -52 -135 -51 -39 24 -38 25
-222 -86 c-121 -47 -315 -122 -431 -166 -115 -45 -325 -126 -465 -180 -140
-54 -455 -176 -700 -270 -245 -95 -501 -194 -570 -220 -69 -26 -267 -103 -440
-170 -173 -67 -371 -144 -440 -170 -69 -26 -325 -125 -570 -220 -245 -95 -501
-194 -570 -220 -69 -26 -267 -103 -440 -170 -173 -67 -371 -143 -440 -170
l-125 -47 -3 -66 -3 -66 -82 -31 c-45 -18 -291 -115 -545 -216 -255 -101 -470
-184 -478 -184 -12 0 -14 16 -12 87 l3 88 275 108 c337 132 848 333 1320 519
195 77 479 189 630 248 151 59 426 167 610 240 725 286 1142 449 1853 729 166
65 451 177 632 249 413 162 951 374 1290 508 143 57 264 103 268 103 4 1 6
-38 5 -86z m-3795 -70 l-1 -76 -164 -62 -163 -62 -3 70 c-2 38 1 74 6 79 11
11 293 126 312 127 12 1 15 -13 13 -76z m-7731 -64 c70 -51 124 -96 120 -100
-4 -3 -118 -38 -253 -79 l-245 -72 -151 108 c-83 60 -148 112 -145 115 4 4 39
12 77 18 67 12 348 80 410 100 17 5 37 8 45 7 8 -2 72 -45 142 -97z m761 0
c190 -96 342 -181 371 -209 28 -28 28 -28 6 -35 -16 -5 -29 0 -50 20 l-29 28
-7 -27 c-5 -23 -11 -27 -30 -22 -19 5 -24 2 -24 -14 0 -23 -4 -24 -32 -9 -20
11 -21 9 -15 -25 l6 -36 -40 20 c-28 15 -39 17 -39 8 0 -7 -4 -19 -9 -27 -8
-13 -12 -13 -26 -1 -15 12 -18 12 -26 -3 -7 -12 -17 -15 -36 -11 -16 4 -28 2
-34 -7 -8 -11 -12 -10 -24 5 -15 20 -15 20 -30 0 -8 -10 -15 -22 -15 -25 0 -3
-18 -5 -40 -5 -34 1 -66 20 -229 131 -104 72 -186 133 -183 136 4 3 63 26 132
52 69 25 157 59 195 76 39 16 78 30 88 30 9 1 63 -22 120 -50z m10755 -191
c-20 -13 -35 -6 -137 57 l-94 58 119 47 119 48 3 -101 c2 -73 -1 -103 -10
-109z m-3785 80 l-1 -73 -159 -62 c-87 -35 -161 -63 -165 -63 -5 0 -8 33 -8
73 l0 72 158 62 c86 34 162 62 167 62 6 1 9 -28 8 -71z m3407 -33 c-3 -30 -8
-56 -11 -59 -2 -3 -191 -79 -419 -170 -474 -188 -446 -176 -807 -347 -370
-175 -391 -183 -773 -298 -518 -155 -1054 -355 -1709 -635 -305 -131 -629
-264 -720 -296 -91 -32 -276 -96 -410 -143 l-244 -85 -56 19 c-30 11 -59 23
-62 27 -4 4 659 267 1474 585 815 318 1574 614 1687 658 113 44 302 118 420
164 118 46 332 129 475 185 143 56 357 139 475 185 118 46 319 125 445 174
127 50 232 90 236 91 3 0 2 -25 -1 -55z m211 -45 c89 -55 167 -104 172 -109 5
-5 -29 -24 -88 -46 l-97 -38 -81 79 c-45 44 -83 80 -85 81 -5 2 8 133 13 133
1 0 76 -45 166 -100z m-7775 -344 l536 -389 -59 -24 c-40 -17 -65 -22 -79 -16
-45 17 -544 388 -544 405 0 9 -98 112 -217 229 -120 116 -208 206 -196 198 13
-8 264 -189 559 -403z m-1306 376 c0 -13 -12 -22 -39 -30 l-38 -12 -7 -108
c-3 -59 -9 -242 -12 -407 -4 -165 -10 -331 -14 -370 -10 -95 -12 322 -3 658
l6 256 36 15 c49 21 71 20 71 -2z m490 -321 c217 -156 400 -288 405 -293 11
-11 -53 -69 -72 -65 -23 4 -862 602 -855 609 14 14 87 37 107 34 11 -1 198
-130 415 -285z m3598 182 l-3 -77 -193 -77 c-139 -56 -194 -74 -198 -65 -3 7
-4 44 -2 81 3 68 3 68 38 81 19 7 105 39 190 73 85 33 159 61 163 61 4 0 7
-35 5 -77z m1382 9 l0 -68 -157 -63 c-87 -35 -164 -65 -170 -68 -10 -4 -13 14
-13 69 l0 74 158 61 c86 34 163 62 170 62 8 1 12 -19 12 -67z m3568 -102 c1
-3 -65 -31 -146 -62 -130 -50 -736 -287 -1327 -518 -110 -43 -387 -151 -615
-240 -228 -89 -622 -243 -875 -342 -253 -99 -539 -210 -635 -248 -849 -332
-1110 -434 -1202 -470 l-108 -41 -97 36 c-54 20 -122 46 -152 57 -38 14 -50
23 -40 28 8 5 181 69 384 143 257 94 543 209 935 377 647 278 1201 484 1670
621 390 114 370 106 870 334 327 149 555 245 810 342 195 73 356 136 359 139
4 4 167 -145 169 -156z m-10193 120 c3 -5 1 -10 -4 -10 -6 0 -11 5 -11 10 0 6
2 10 4 10 3 0 8 -4 11 -10z m5 -62 c0 -16 -3 -19 -11 -11 -6 6 -8 16 -5 22 11
17 16 13 16 -11z m1538 -278 l422 -295 0 -75 c0 -75 0 -76 30 -87 30 -11 30
-12 30 -83 l0 -72 -25 16 c-13 9 -26 16 -29 16 -3 0 -6 -30 -8 -66 l-3 -66
-49 -20 c-27 -10 -50 -17 -52 -15 -2 1 -6 105 -10 229 l-7 227 -306 216 -306
216 -6 -108 c-4 -59 -7 -217 -8 -350 l-1 -243 183 -136 c100 -75 186 -140 191
-145 13 -11 -53 -41 -78 -35 -11 4 -109 68 -216 144 -157 111 -195 141 -194
160 0 12 1 214 2 448 1 234 6 424 10 422 4 -1 198 -136 430 -298z m3246 93 c3
-109 9 -277 12 -374 6 -165 5 -176 -12 -183 -23 -9 -633 -231 -787 -287 l-108
-39 2 360 c0 260 4 362 12 367 12 8 857 350 868 352 4 1 9 -88 13 -196z m-626
161 c95 -3 170 -10 165 -14 -13 -11 -525 -211 -530 -206 -2 2 33 56 78 120 58
82 87 115 98 112 9 -3 94 -8 189 -12z m6300 -36 c-8 -13 -70 -115 -138 -228
-68 -113 -130 -212 -139 -222 -9 -9 -144 -68 -301 -131 -157 -63 -441 -178
-632 -256 -192 -78 -502 -203 -690 -280 -189 -76 -512 -207 -718 -291 -206
-84 -528 -214 -715 -290 -1014 -411 -1843 -747 -1939 -787 -59 -24 -110 -42
-113 -40 -3 3 226 519 242 545 1 1 76 31 166 66 610 237 3617 1407 4224 1644
407 160 746 290 754 291 11 1 11 -3 -1 -21z m-10458 -9 c0 -11 -4 -17 -10 -14
-5 3 -10 13 -10 21 0 8 5 14 10 14 6 0 10 -9 10 -21z m5233 -150 c-4 -4 -92
-41 -195 -82 l-188 -75 0 74 c0 41 1 77 1 82 1 4 88 41 193 82 l191 75 3 -74
c2 -41 -1 -78 -5 -82z m-3675 -208 l232 -173 0 -65 c0 -35 -4 -63 -8 -61 -4 2
-124 86 -265 188 l-257 185 0 74 0 73 33 -24 c17 -14 137 -102 265 -197z
m3682 107 l0 -73 -188 -73 c-103 -40 -191 -72 -195 -72 -4 0 -7 32 -5 71 l3
71 185 73 c102 41 188 74 193 74 4 1 7 -32 7 -71z m-1481 58 c-9 -9 -233 -96
-237 -92 -2 3 -6 22 -9 44 -5 40 -5 41 28 45 46 5 223 8 218 3z m-1183 -202
c140 -102 254 -187 252 -189 -7 -7 -114 -45 -126 -45 -7 0 -99 61 -203 136
l-189 135 0 75 c0 40 2 74 5 74 3 0 120 -84 261 -186z m-4494 55 l70 -21 -7
-114 c-4 -63 -10 -248 -14 -412 l-6 -297 -49 -32 c-63 -43 -119 -44 -196 -4
l-55 28 3 394 c4 437 2 423 72 460 45 25 96 24 182 -2z m3462 -194 c137 -98
250 -184 253 -191 2 -6 3 -33 1 -59 l-3 -47 -267 188 -267 189 -1 63 c0 59 1
62 18 50 10 -7 130 -94 266 -193z m3694 104 l-3 -72 -188 -72 c-103 -40 -189
-70 -191 -66 -2 3 -3 35 -2 71 l1 64 180 72 c99 40 186 72 193 73 10 1 12 -17
10 -70z m-1428 -23 l0 -83 -92 -36 c-51 -19 -117 -45 -146 -56 l-53 -21 3 82
3 82 140 57 c77 32 141 58 143 58 1 1 2 -37 2 -83z m-1307 -70 l168 -121 -38
-16 c-78 -33 -71 -35 -207 62 -90 64 -126 95 -122 106 3 8 6 35 6 59 0 33 3
43 13 38 6 -4 88 -62 180 -128z m-433 19 c0 -73 -1 -75 -30 -90 l-30 -16 0 75
c0 65 3 75 23 89 12 9 25 16 30 16 4 1 7 -33 7 -74z m1263 28 c24 -27 30 -66
15 -102 -15 -36 25 -19 -653 -283 -440 -172 -635 -248 -888 -347 -142 -56
-264 -101 -271 -101 -25 0 -66 41 -66 66 0 30 21 73 47 96 10 9 149 67 308
128 160 61 450 173 645 247 195 75 456 176 580 224 124 48 234 88 246 88 11 1
28 -7 37 -16z m-1784 -223 l261 -185 0 -47 c0 -42 -3 -48 -25 -54 -20 -5 -66
24 -272 173 l-248 179 -3 68 c-2 57 -1 66 11 59 8 -4 132 -91 276 -193z m871
77 c52 -38 96 -72 98 -75 2 -7 -104 -52 -122 -52 -4 0 -28 14 -52 32 l-44 31
0 74 c0 57 3 72 13 67 6 -5 55 -39 107 -77z m1390 -15 l0 -79 -132 -52 c-73
-29 -139 -55 -145 -58 -10 -4 -13 15 -13 75 l0 80 138 55 c75 31 140 56 145
57 4 0 7 -35 7 -78z m-1740 4 c0 -29 -24 -40 -41 -19 -11 13 -10 17 6 29 27
20 35 17 35 -10z m1360 -98 c0 -61 -3 -77 -12 -72 -7 4 -44 30 -82 58 l-69 50
52 22 c28 13 54 30 57 38 5 14 9 13 30 -1 22 -14 24 -22 24 -95z m-1935 -110
c124 -89 225 -165 225 -168 0 -9 -75 -33 -88 -29 -6 2 -92 66 -191 142 l-181
138 0 39 c0 22 2 40 5 40 3 0 107 -73 230 -162z m575 88 c0 -36 -4 -68 -10
-71 -6 -4 -10 20 -10 64 0 41 4 71 10 71 6 0 10 -28 10 -64z m1268 -22 l92
-66 0 -69 c0 -63 -2 -69 -17 -60 -44 24 -286 207 -285 215 1 10 76 43 102 45
8 1 57 -29 108 -65z m-999 35 c26 -21 26 -21 -5 -37 -26 -14 -34 -7 -34 30 0
33 7 34 39 7z m1469 -76 l-3 -77 -125 -48 c-69 -26 -133 -50 -142 -54 -16 -5
-18 3 -18 69 l0 73 138 56 c75 31 141 57 145 57 4 1 7 -34 5 -76z m-548 -75
l169 -123 0 -72 c1 -40 -1 -73 -5 -73 -3 0 -106 73 -230 161 -137 99 -224 168
-224 178 0 16 64 47 103 50 11 0 95 -54 187 -121z m-377 -578 c-5 -4 -272
-113 -595 -243 l-588 -236 1 217 c1 119 4 268 8 330 l6 114 215 82 c303 116
672 257 825 315 l130 49 3 -311 c1 -171 -1 -314 -5 -317z m-813 605 c0 -14
-37 -35 -61 -35 -5 0 -9 11 -9 25 0 22 4 25 35 25 25 0 35 -4 35 -15z m1143
-175 l227 -164 0 -64 0 -64 -54 39 c-29 21 -135 97 -234 168 l-182 130 0 63
c0 35 4 62 8 60 5 -1 110 -77 235 -168z m607 51 l0 -69 -143 -56 c-79 -31
-146 -56 -150 -56 -5 0 -7 32 -5 72 l3 71 140 53 c77 29 143 54 148 54 4 0 7
-31 7 -69z m-606 -211 l226 -164 0 -68 c0 -37 -3 -68 -7 -68 -5 0 -109 73
-233 163 l-225 163 -3 73 c-2 41 1 71 6 69 5 -1 111 -77 236 -168z m-4 -173
l225 -163 3 -73 c2 -40 -1 -71 -6 -69 -4 1 -110 77 -235 167 l-227 165 0 68
c0 37 3 68 8 68 4 0 108 -73 232 -163z m-1577 -249 c-3 -167 -7 -304 -7 -305
-1 -2 -12 4 -24 13 -22 15 -22 18 -22 295 l0 280 23 9 c12 5 25 9 29 9 4 1 5
-135 1 -301z m1578 66 l229 -166 0 -70 0 -69 -52 39 c-29 21 -136 98 -238 172
-212 153 -198 142 -185 146 6 2 8 28 7 59 -2 30 -1 55 3 55 4 0 110 -75 236
-166z m-26 -150 l255 -186 0 -80 c0 -63 -3 -78 -12 -71 -7 6 -146 106 -308
223 -162 117 -305 221 -317 230 -22 17 -22 18 45 43 37 14 70 26 74 26 4 1
122 -83 263 -185z m255 -430 l0 -53 -37 16 c-121 50 -229 118 -495 311 -164
118 -295 218 -292 221 3 3 35 18 71 32 l66 26 344 -250 343 -251 0 -52z m-617
306 c125 -90 225 -166 223 -168 -2 -2 -22 8 -44 23 l-40 27 -85 -40 c-90 -43
-357 -142 -383 -142 -15 0 -294 199 -294 210 0 3 96 36 213 73 l212 69 154
-86 c85 -48 156 -84 158 -82 2 2 -53 37 -124 77 -70 40 -146 85 -167 101 -22
15 -45 28 -50 28 -6 0 -31 13 -55 30 -49 32 -50 29 19 52 19 7 3 18 263 -172z
m-297 111 c26 -15 42 -31 38 -34 -5 -2 -100 -34 -212 -71 l-204 -66 -34 27
-35 26 188 73 c103 40 194 73 201 73 6 1 33 -12 58 -28z m2449 -152 c127 -51
233 -95 237 -98 5 -4 -42 -124 -103 -266 -61 -143 -116 -274 -124 -292 l-13
-31 -127 51 -127 52 6 200 c3 110 6 262 6 338 0 75 3 137 8 137 4 0 111 -41
237 -91z m-335 -88 l0 -108 -92 -36 c-51 -19 -299 -116 -552 -216 -252 -100
-462 -181 -467 -181 -5 0 -9 40 -9 89 0 79 2 90 19 96 10 3 18 13 17 21 -1 12
102 57 404 176 223 87 466 183 540 213 74 29 136 54 138 54 1 1 2 -48 2 -108z
m-2359 -83 c76 -56 139 -104 139 -108 0 -3 -100 -36 -222 -73 -123 -37 -244
-73 -270 -81 l-46 -14 -168 121 -168 121 34 8 c178 37 332 72 420 97 58 16
113 30 124 30 10 1 81 -45 157 -101z m1135 -164 c59 -34 124 -84 124 -96 0
-19 -56 -6 -81 18 l-27 26 -7 -31 c-6 -27 -9 -29 -31 -21 -22 9 -24 7 -24 -16
0 -19 -4 -25 -15 -20 -8 3 -22 9 -31 12 -13 6 -14 1 -8 -31 l7 -37 -42 21 -41
21 -6 -25 c-7 -28 -14 -31 -32 -13 -9 9 -16 8 -30 -5 -11 -10 -26 -14 -41 -10
-14 4 -26 1 -31 -8 -7 -11 -12 -10 -29 5 -19 17 -20 17 -37 -9 -12 -19 -23
-25 -38 -21 -11 3 -25 1 -31 -4 -12 -10 -50 15 -328 208 -59 41 -104 78 -100
82 4 4 60 25 123 48 63 23 164 61 223 85 l108 44 188 -97 c103 -54 210 -110
237 -126z m-1705 -12 c80 -61 150 -116 156 -124 23 -29 38 -146 36 -283 -1
-126 -35 -500 -45 -511 -3 -2 -52 37 -109 86 -57 50 -130 108 -161 128 -56 37
-57 38 -51 76 3 21 6 200 7 396 1 237 4 356 11 350 6 -4 76 -57 156 -118z
m2929 89 c0 -21 3 -65 6 -98 l7 -60 -134 -53 c-74 -29 -321 -127 -549 -217
-228 -91 -423 -168 -432 -170 -16 -5 -17 4 -15 97 l2 102 405 159 c223 88 470
186 550 218 80 33 148 60 153 60 4 1 7 -16 7 -38z m10 -220 c0 -27 -5 -30
-157 -89 -87 -33 -338 -131 -557 -216 -220 -86 -403 -156 -408 -156 -5 0 -8
12 -6 26 3 24 31 37 453 204 248 98 495 196 550 218 55 23 106 41 113 41 7 1
12 -11 12 -28z m-3294 -368 l57 -17 -7 -71 c-3 -38 -9 -221 -12 -405 -7 -372
-4 -354 -78 -392 -53 -27 -127 -21 -190 16 l-48 28 7 391 c8 437 6 424 78 458
48 23 104 20 193 -8z"/>
<path d="M11890 5582 c-179 -70 -331 -131 -337 -135 -10 -6 -13 -69 -13 -259
l0 -250 23 5 c12 4 167 61 345 129 l322 123 0 257 c0 142 -3 258 -7 258 -5 -1
-154 -58 -333 -128z m288 -144 l-3 -181 -35 -12 c-19 -7 -59 -22 -87 -34 l-53
-21 0 183 0 182 83 32 c45 17 85 32 90 32 4 1 6 -81 5 -181z m-224 -85 c-4
-98 -9 -181 -13 -185 -8 -8 -133 -59 -137 -55 -7 6 16 362 23 364 4 2 31 14
58 27 28 14 56 25 63 25 10 1 11 -35 6 -176z m-195 -25 c-1 -68 -4 -149 -8
-181 l-6 -59 -59 -24 c-33 -13 -63 -24 -68 -24 -5 0 -7 82 -6 181 l3 182 60
22 c33 13 66 23 73 24 9 1 12 -29 11 -121z"/>
<path d="M10695 5109 c-143 -54 -293 -111 -332 -126 l-73 -28 0 -257 0 -258
23 9 c12 5 161 63 331 130 170 66 311 122 313 125 9 9 16 506 7 505 -5 0 -126
-45 -269 -100z m221 -335 c-4 -9 -154 -74 -172 -74 -2 0 -4 80 -4 178 l0 177
88 36 87 35 3 -170 c1 -94 0 -176 -2 -182z m-221 70 l-7 -173 -70 -27 c-38
-14 -71 -25 -72 -23 -6 7 13 352 19 357 15 16 130 58 134 50 2 -6 0 -88 -4
-184z m-197 -86 c-2 -86 -6 -159 -8 -162 -3 -2 -35 -16 -72 -30 l-68 -25 0
184 0 183 73 25 72 24 4 -21 c2 -12 1 -92 -1 -178z"/>
<path d="M9363 4572 l-333 -136 0 -257 0 -257 138 54 c75 29 227 89 337 132
l200 78 3 262 c1 144 -1 262 -5 261 -5 0 -158 -62 -340 -137z m307 -54 c0 -57
-3 -141 -7 -187 -7 -94 6 -80 -123 -131 l-50 -20 0 184 0 183 83 36 c45 19 85
35 90 36 4 1 7 -45 7 -101z m-228 -175 c-2 -98 -7 -181 -10 -185 -4 -4 -38
-19 -76 -33 l-69 -26 6 128 c4 70 7 152 7 181 l0 53 63 29 c34 16 67 29 72 29
7 1 9 -60 7 -176z m-199 -80 c-3 -98 -8 -181 -12 -184 -10 -9 -113 -49 -127
-49 -11 0 -14 34 -14 179 l0 179 73 25 c39 14 75 26 79 26 4 1 5 -79 1 -176z"/>
<path d="M2463 4134 c4 -104 7 -266 7 -360 l0 -170 326 -240 c180 -131 333
-243 341 -247 12 -7 13 27 8 235 -3 134 -8 302 -11 374 l-6 131 -321 225
c-177 124 -328 228 -336 233 -12 7 -13 -19 -8 -181z m374 -107 l263 -192 0
-63 c0 -50 -3 -61 -14 -55 -7 4 -144 102 -305 217 l-291 210 0 69 0 69 43 -32
c23 -17 160 -117 304 -223z m-27 -155 c157 -113 286 -205 286 -206 7 -6 14
-136 7 -136 -4 0 -141 96 -303 213 l-295 212 -3 69 c-2 53 0 66 10 60 7 -4
141 -100 298 -212z m53 -219 l247 -176 0 -69 c0 -55 -3 -67 -13 -61 -8 4 -145
102 -305 216 l-292 209 0 70 0 69 58 -41 c31 -23 168 -121 305 -217z m-55
-144 c163 -117 297 -212 298 -213 1 0 4 -25 7 -54 5 -44 4 -53 -8 -49 -7 3
-144 101 -303 216 l-290 211 -4 50 c-1 28 -2 50 0 50 1 0 136 -95 300 -211z"/>
<path d="M7988 4043 l-338 -134 0 -255 c0 -140 4 -254 9 -254 8 0 661 257 666
262 8 8 17 518 9 517 -5 0 -161 -62 -346 -136z m302 -136 l0 -183 -90 -36 -90
-36 2 185 3 186 75 33 c41 18 81 34 88 34 9 0 12 -43 12 -183z m-224 -9 c-3
-50 -6 -131 -6 -180 0 -83 -2 -89 -22 -97 -13 -5 -47 -18 -76 -30 l-53 -21 6
123 c3 67 8 150 11 184 l5 61 57 25 c88 39 86 41 78 -65z m-196 -91 c0 -57 -3
-138 -6 -180 l-7 -76 -64 -26 c-35 -14 -65 -25 -68 -25 -3 0 -5 82 -5 183 l0
183 63 21 c34 12 68 22 75 22 9 1 12 -26 12 -102z"/>
<path d="M6553 3482 l-322 -137 -1 -257 0 -258 38 15 c20 8 172 71 337 138
l300 123 -3 195 c-2 208 -10 320 -20 318 -4 0 -152 -62 -329 -137z m317 11 c0
-32 -3 -121 -6 -198 l-7 -141 -81 -32 c-45 -18 -85 -32 -89 -32 -4 0 -7 85 -7
188 l0 188 88 41 c48 23 90 42 95 42 4 1 7 -25 7 -56z m-230 -234 l0 -190 -52
-23 c-29 -13 -63 -26 -75 -30 l-23 -7 1 173 c0 95 4 182 8 192 6 15 110 71
139 76 1 0 2 -86 2 -191z m-207 -270 c-7 -6 -131 -59 -140 -59 -2 0 -3 82 -3
183 l0 183 73 35 72 36 3 -185 c1 -102 -1 -189 -5 -193z"/>
<path d="M285 3253 c-21 -9 -52 -12 -107 -7 -62 4 -78 3 -78 -8 0 -13 46 -41
87 -53 30 -8 121 32 129 57 8 26 4 28 -31 11z"/>
<path d="M3793 2543 c11 -13 17 -36 17 -66 0 -55 13 -67 36 -31 16 24 16 30 3
68 -12 34 -19 42 -44 44 -29 4 -29 3 -12 -15z"/>
<path d="M4490 2551 c-73 -11 -119 -31 -158 -71 -56 -56 -67 -85 -67 -185 0
-80 3 -96 29 -142 15 -28 41 -64 57 -79 l29 -28 -27 -22 c-26 -21 -27 -24 -11
-39 15 -16 23 -15 125 25 59 23 111 45 116 49 4 4 -24 29 -62 55 -146 99 -178
205 -92 297 36 37 41 39 100 39 57 0 66 -3 91 -30 33 -35 37 -55 46 -210 4
-66 9 -120 12 -120 14 0 252 93 252 99 -1 24 -18 29 -59 20 -54 -12 -56 -9
-64 79 -7 83 -30 161 -58 196 -46 58 -143 83 -259 67z"/>
<path d="M3546 883 c-23 -12 -47 -14 -108 -9 -64 5 -78 4 -78 -8 0 -15 75 -56
103 -56 31 0 106 41 113 62 8 27 4 29 -30 11z"/>
<path d="M890 4638 c0 -4 15 -23 34 -43 27 -31 34 -34 39 -21 6 14 11 15 28 5
21 -11 38 0 39 25 0 5 9 1 20 -9 19 -17 19 -17 7 14 -14 39 -20 39 -34 0 -11
-29 -12 -30 -36 -14 -22 14 -25 14 -31 0 -4 -13 -12 -9 -36 17 -16 18 -30 30
-30 26z"/>
<path d="M872 4564 c10 -10 20 -15 24 -12 3 4 -5 12 -18 18 -22 12 -22 12 -6
-6z"/>
<path d="M551 4451 c-7 -5 -22 -6 -33 -3 -11 3 -24 -1 -28 -8 -7 -11 -14 -12
-35 -2 -20 10 -31 10 -41 1 -10 -8 -22 -8 -44 -1 -27 10 -30 9 -30 -9 0 -19
-1 -19 -26 -3 -24 16 -25 16 -31 -4 -4 -17 -9 -20 -23 -12 -28 15 -33 12 -26
-16 6 -24 5 -26 -18 -22 -18 4 -26 1 -26 -8 0 -22 -14 -17 -45 16 -37 39 -46
38 -34 -2 12 -44 12 -48 -8 -49 -15 0 -15 -2 2 -9 31 -13 31 -13 27 28 l-4 37
29 -27 c33 -32 43 -35 43 -13 0 11 7 14 25 9 22 -5 25 -3 25 20 0 24 2 25 20
16 17 -9 20 -8 20 10 0 24 4 25 35 4 24 -16 25 -15 25 5 0 22 15 27 40 11 9
-5 19 -5 27 2 10 8 21 8 40 -1 22 -10 28 -10 35 3 6 10 17 14 31 11 12 -3 31
1 42 9 21 16 10 22 -14 7z"/>
<path d="M66 4264 c-11 -7 -18 -16 -15 -18 2 -2 13 2 23 10 11 7 18 16 15 18
-2 2 -13 -2 -23 -10z"/>
<path d="M30 4150 c-19 -16 -30 -29 -24 -30 5 0 23 14 39 30 37 38 29 39 -15
0z"/>
<path d="M43 4037 c-8 -16 -7 -31 1 -52 12 -28 12 -27 12 23 0 29 -1 52 -1 52
-1 0 -6 -10 -12 -23z"/>
<path d="M30 3929 c0 -5 5 -7 10 -4 6 3 10 8 10 11 0 2 -4 4 -10 4 -5 0 -10
-5 -10 -11z"/>
<path d="M44 3814 c-3 -19 -2 -44 3 -56 6 -15 9 -6 9 36 0 31 -1 56 -3 56 -1
0 -5 -16 -9 -36z"/>
<path d="M26 3700 c15 -28 29 -48 31 -46 6 5 -41 95 -50 96 -5 0 4 -23 19 -50z"/>
<path d="M1482 3605 c-7 -15 -20 -25 -32 -25 -16 0 -20 -7 -20 -35 0 -19 -4
-35 -10 -35 -5 0 -10 5 -10 12 0 6 -3 8 -6 5 -4 -4 -1 -14 6 -22 17 -20 30 -3
30 38 0 20 5 27 20 27 12 0 26 12 35 30 9 17 12 30 7 30 -5 0 -14 -11 -20 -25z"/>
<path d="M31 3585 c-1 -27 8 -36 85 -88 47 -33 87 -57 90 -54 2 2 -33 28 -78
58 -66 43 -84 60 -89 84 l-7 30 -1 -30z"/>
<path d="M1357 3546 c-4 -9 -14 -12 -26 -9 -15 4 -22 -1 -27 -21 -6 -27 -18
-33 -29 -16 -7 12 -25 13 -25 2 0 -4 13 -13 29 -19 27 -10 30 -9 35 13 4 14
14 24 24 24 19 0 42 18 42 32 0 14 -18 9 -23 -6z"/>
<path d="M1155 3290 c-4 -13 0 -31 10 -47 17 -25 17 -27 -6 -45 l-24 -19 28
12 c30 14 32 23 13 58 -7 13 -11 32 -8 43 6 25 -5 23 -13 -2z"/>
<path d="M2165 3210 c3 -5 11 -10 16 -10 6 0 7 5 4 10 -3 6 -11 10 -16 10 -6
0 -7 -4 -4 -10z"/>
<path d="M2171 3148 c-1 -16 4 -28 9 -28 12 0 12 8 0 35 -8 18 -9 17 -9 -7z"/>
<path d="M1170 3131 c14 -28 13 -31 -15 -31 -14 0 -25 -4 -25 -8 0 -4 16 -6
35 -4 l34 4 -15 29 c-8 16 -17 29 -20 29 -2 0 0 -9 6 -19z"/>
<path d="M2095 3139 c-11 -17 1 -21 15 -4 8 9 8 15 2 15 -6 0 -14 -5 -17 -11z"/>
<path d="M2030 3110 c0 -23 -7 -24 -45 -10 -20 8 -27 7 -31 -5 -4 -9 -19 -15
-39 -15 -26 0 -34 -5 -38 -22 -6 -22 -5 -22 8 -4 10 13 22 17 39 14 15 -3 31
1 37 9 8 9 23 11 45 7 27 -5 34 -3 34 10 0 9 8 16 21 16 11 0 17 5 14 10 -12
19 -45 11 -45 -10z"/>
<path d="M1130 2999 c0 -5 5 -7 10 -4 6 3 10 8 10 11 0 2 -4 4 -10 4 -5 0 -10
-5 -10 -11z"/>
<path d="M1136 2917 c-17 -13 -18 -15 -2 -43 15 -25 15 -14 -1 24 -3 6 2 12
11 12 9 0 16 5 16 10 0 13 -3 13 -24 -3z"/>
<path d="M1390 2875 c-13 -41 -22 -43 -43 -12 -15 22 -15 22 -31 2 -8 -11 -15
-24 -15 -30 0 -5 6 -1 14 9 15 19 15 19 38 -2 31 -29 34 -28 42 14 5 29 10 35
26 31 24 -7 24 -1 0 13 -17 9 -21 5 -31 -25z"/>
<path d="M1260 2866 c0 -2 8 -10 18 -17 15 -13 16 -12 3 4 -13 16 -21 21 -21
13z"/>
<path d="M11810 2717 c-26 -7 -63 -23 -83 -36 l-37 -23 2 -446 3 -447 75 -38
c65 -34 81 -38 122 -34 53 7 96 26 151 69 l37 30 0 236 c1 218 7 351 26 569
l7 81 -69 22 c-88 27 -176 33 -234 17z m178 -59 l74 -21 -7 -134 c-4 -74 -10
-258 -14 -410 l-6 -276 -38 -31 c-35 -28 -46 -31 -105 -31 -55 0 -75 5 -114
28 l-48 28 1 87 c2 321 17 699 27 718 15 27 88 64 127 64 17 0 63 -10 103 -22z"/>
<path d="M11970 2553 c-16 -9 -52 -13 -104 -11 -55 2 -80 -1 -83 -9 -5 -15 67
-53 99 -53 32 1 107 36 114 54 10 26 0 33 -26 19z"/>
<path d="M10420 2157 c-26 -7 -63 -23 -83 -36 l-37 -23 0 -439 0 -439 47 -30
c104 -66 189 -67 281 -4 l57 39 6 280 c6 250 20 492 35 582 5 32 4 32 -63 53
-86 27 -185 34 -243 17z m203 -61 c47 -14 57 -21 52 -34 -4 -10 -9 -190 -12
-402 -5 -375 -6 -386 -27 -408 -30 -34 -90 -62 -131 -62 -37 0 -136 41 -152
63 -13 18 4 776 18 804 7 12 31 32 53 43 48 25 107 23 199 -4z"/>
<path d="M10570 1993 c-28 -13 -48 -14 -102 -6 -59 7 -68 7 -68 -7 0 -21 62
-53 100 -52 43 1 102 33 111 60 10 25 6 26 -41 5z"/>
<path d="M3680 2014 c0 -10 -5 -14 -15 -10 -8 3 -22 9 -30 12 -11 4 -15 0 -15
-15 0 -25 -7 -26 -32 -4 -17 15 -18 14 -18 -20 0 -35 -1 -36 -25 -27 -20 7
-25 6 -25 -5 0 -19 -14 -19 -30 0 -7 9 -26 25 -41 36 l-28 20 13 -46 c14 -46
14 -49 -16 -46 -28 3 -21 -6 13 -18 l32 -11 -6 40 c-3 22 -2 40 2 40 4 0 20
-14 36 -30 27 -28 30 -29 36 -12 5 14 14 18 32 15 22 -4 24 -2 20 21 -5 26 10
36 22 16 11 -17 25 -11 25 11 0 16 4 19 18 14 46 -19 52 -18 52 9 0 14 -4 26
-10 26 -5 0 -10 -7 -10 -16z"/>
<path d="M3380 1830 c-14 -11 -20 -20 -15 -19 13 0 50 28 44 33 -2 3 -15 -4
-29 -14z"/>
<path d="M3381 1757 c-1 -9 -16 -31 -33 -48 l-33 -31 33 22 c36 24 47 42 39
62 -3 8 -6 6 -6 -5z"/>
<path d="M3359 1650 c24 -21 24 -22 7 -51 -15 -25 -16 -35 -5 -67 6 -20 16
-41 21 -47 7 -7 7 -2 2 15 -10 29 -10 86 0 116 6 16 1 24 -21 38 l-28 17 24
-21z"/>
<path d="M8969 1556 c-20 -7 -52 -22 -70 -33 l-34 -19 0 -443 0 -443 56 -35
c99 -61 186 -57 285 15 l41 30 6 268 c4 148 12 332 18 409 7 77 12 158 13 179
l1 40 -70 22 c-80 26 -189 31 -246 10z m230 -63 c43 -16 43 -17 37 -57 -3 -23
-9 -203 -12 -401 -6 -348 -7 -361 -28 -383 -30 -33 -89 -62 -128 -62 -18 0
-62 14 -97 30 l-64 31 7 397 8 397 30 32 c51 53 135 59 247 16z"/>
<path d="M9130 1393 c-32 -14 -115 -12 -157 4 -8 3 -13 -2 -13 -14 0 -23 57
-53 101 -53 41 0 95 24 108 48 20 37 15 39 -39 15z"/>
<path d="M3350 1460 c0 -11 2 -20 4 -20 2 0 6 9 9 20 3 11 1 20 -4 20 -5 0 -9
-9 -9 -20z"/>
<path d="M3362 1356 c-7 -17 -8 -35 -1 -60 5 -20 11 -36 12 -36 2 0 3 27 2 60
0 33 0 60 -1 60 0 0 -6 -11 -12 -24z"/>
<path d="M3320 1277 c0 -4 12 -31 26 -60 25 -49 26 -53 11 -79 -11 -19 -13
-35 -7 -55 l8 -28 1 32 c1 18 6 43 12 56 9 20 6 34 -20 83 -16 32 -30 55 -31
51z"/>
<path d="M4784 1055 c-4 -10 -14 -13 -30 -9 -19 5 -24 2 -24 -14 0 -28 -15
-35 -41 -22 -11 7 -23 9 -26 7 -8 -8 56 -39 67 -32 6 3 10 15 10 26 0 13 7 19
23 19 23 0 47 17 47 32 0 14 -20 9 -26 -7z"/>
<path d="M7497 1015 c-21 -8 -51 -24 -67 -35 l-30 -21 0 -438 0 -437 54 -32
c107 -65 176 -66 274 -3 l59 38 6 279 c6 255 17 435 33 570 l6 51 -79 22 c-91
24 -199 27 -256 6z m240 -59 c33 -12 38 -17 36 -42 -1 -16 -5 -199 -9 -407
l-7 -378 -35 -29 c-67 -55 -143 -57 -236 -6 l-38 21 6 400 7 400 31 27 c54 47
138 51 245 14z"/>
<path d="M7680 858 c-14 -5 -59 -8 -102 -5 -60 4 -78 2 -78 -8 0 -18 45 -45
84 -52 43 -7 121 27 129 56 6 23 3 24 -33 9z"/>
<path d="M5650 677 c0 -1 4 -17 10 -36 9 -32 9 -33 -18 -27 -31 7 -11 -7 25
-18 22 -7 22 -7 7 38 -13 37 -24 58 -24 43z"/>
<path d="M5580 614 c0 -13 -7 -15 -35 -11 -33 5 -35 4 -35 -24 0 -18 4 -28 10
-24 6 3 10 13 10 21 0 9 11 14 30 14 19 0 33 7 40 20 9 16 8 20 -5 20 -8 0
-15 -7 -15 -16z"/>
<path d="M4587 593 c4 -20 1 -23 -21 -23 -14 0 -26 -4 -26 -8 0 -4 16 -6 35
-4 39 5 42 9 20 38 -14 18 -14 18 -8 -3z"/>
<path d="M5428 562 c-4 -15 -12 -18 -38 -14 -21 3 -35 0 -41 -9 -14 -23 -9
-35 6 -15 10 14 22 17 44 13 20 -4 33 -1 42 9 8 9 23 14 37 11 31 -6 15 10
-19 18 -21 5 -27 2 -31 -13z"/>
<path d="M4558 525 c5 -11 12 -27 15 -35 5 -13 6 -13 6 1 1 8 -6 24 -15 35
-15 19 -15 19 -6 -1z"/>
<path d="M4540 470 c-9 -6 -10 -10 -3 -10 6 0 15 5 18 10 8 12 4 12 -15 0z"/>
<path d="M4540 445 c0 -5 5 -17 10 -25 5 -8 10 -10 10 -5 0 6 -5 17 -10 25 -5
8 -10 11 -10 5z"/>
<path d="M4820 334 c-6 -14 -10 -30 -10 -35 0 -16 -17 -9 -33 14 -14 22 -15
22 -36 3 -16 -15 -24 -17 -33 -8 -7 7 -17 12 -22 12 -6 -1 0 -10 14 -21 l24
-21 17 21 16 20 23 -24 c28 -30 36 -26 44 20 7 37 15 42 34 23 8 -8 12 -8 12
-1 0 9 -22 23 -36 23 -3 0 -9 -12 -14 -26z"/>
</g>
</svg>
